<?xml version="1.0" encoding="utf-8"?>
<!-- Generator: Adobe Illustrator 25.1.0, SVG Export Plug-In . SVG Version: 6.00 Build 0)  -->
<svg version="1.1" id="Слой_1" xmlns="http://www.w3.org/2000/svg" xmlns:xlink="http://www.w3.org/1999/xlink" x="0px" y="0px"
	 viewBox="0 0 500 500" style="enable-background:new 0 0 500 500;" xml:space="preserve">
<style type="text/css">
	.st0{fill:#9DB0FF;}
	.st1{fill:#D3E3EB;}
	.st2{fill:#FFFFFF;}
	.st3{fill:#324BD0;}
	.st4{fill:#6981E9;}
	.st5{fill:#040D31;}
	.st6{fill:#FFAD19;}
	.st7{fill:#FFE300;}
	.st8{fill:#4361E2;}
	.st9{fill:#C5CFFF;}
	.st10{fill:#FF8E23;}
	.st11{fill:#FF678C;}
	.st12{fill:#CE3064;}
</style>
<g id="OBJECTS">
	<g>
		<path class="st0" d="M104.6,119.9c-23.8,31.2-34.6,71-35.4,110.2c-0.7,33.3,1.7,83.4,20.8,112c24.1,36.2,70.2,34.2,105.2,51.7
			c128.7,64.3,171.3,60.8,209.3,7.8c30-41.9,48.3-86.7,60.5-138.8c5.5-23.7,12.9-93.2-13.7-135c-12.5-19.6-36.8-29.9-60-30.3
			c-20.8-0.3-41,7.7-61.7,8.3c-38.4,1-71.7-24-107.4-34.2C176.7,58.7,132.5,83.3,104.6,119.9z"/>
		<g>
			<g>
				<path class="st1" d="M384.2,244.5c0,6.6-3.5,9.5-9.8,9.5H114.8c-6.3,0-12.3-2.9-12.3-9.5V67.4c0-6.6,6-11.8,12.3-11.8h259.6
					c6.3,0,9.8,5.2,9.8,11.8V244.5z"/>
				<g>
					<g>
						<rect x="112.9" y="92.9" class="st2" width="45.3" height="44.1"/>
						<rect x="166.8" y="92.9" class="st3" width="45.3" height="44.1"/>
						<rect x="219.5" y="92.9" class="st2" width="45.3" height="44.1"/>
						<rect x="273.3" y="92.9" class="st2" width="45.3" height="44.1"/>
						<rect x="327.2" y="92.9" class="st2" width="45.3" height="44.1"/>
					</g>
					<g>
						<rect x="112.9" y="144.4" class="st2" width="45.3" height="44.1"/>
						<rect x="219.5" y="144.4" class="st2" width="45.3" height="44.1"/>
						<rect x="165.6" y="144.4" class="st2" width="45.3" height="44.1"/>
						<rect x="273.3" y="144.4" class="st2" width="45.3" height="44.1"/>
						<rect x="327.2" y="144.4" class="st2" width="45.3" height="44.1"/>
					</g>
					<g>
						<rect x="112.9" y="197" class="st2" width="45.3" height="44.1"/>
						<rect x="220.7" y="197" class="st2" width="45.3" height="44.1"/>
						<rect x="166.8" y="197" class="st2" width="45.3" height="44.1"/>
						<rect x="273.3" y="197" class="st2" width="45.3" height="44.1"/>
						<rect x="327.2" y="197" class="st2" width="45.3" height="44.1"/>
					</g>
				</g>
				<path class="st4" d="M384.2,81.3V68.7c0-10.5-8.4-18-18.9-18H121.7c-10.5,0-19.2,7.5-19.2,18v12.6H384.2z"/>
				<g>
					<path class="st5" d="M176.1,66c0,2.9-2.4,5.3-5.3,5.3c-2.9,0-5.3-2.4-5.3-5.3c0-2.9,2.4-5.3,5.3-5.3
						C173.7,60.7,176.1,63.1,176.1,66z"/>
					<path class="st5" d="M321.2,66c0,2.9-2.4,5.3-5.3,5.3c-2.9,0-5.3-2.4-5.3-5.3c0-2.9,2.4-5.3,5.3-5.3
						C318.8,60.7,321.2,63.1,321.2,66z"/>
				</g>
			</g>
			<path class="st6" d="M174.8,66.8c0,1.8-1.4,3.2-3.2,3.2H170c-1.8,0-3.2-1.4-3.2-3.2V40.2c0-1.8,1.4-3.2,3.2-3.2h1.6
				c1.8,0,3.2,1.4,3.2,3.2V66.8z"/>
			<path class="st6" d="M320.8,66.8c0,1.8-1.4,3.2-3.2,3.2H316c-1.8,0-3.2-1.4-3.2-3.2V40.2c0-1.8,1.4-3.2,3.2-3.2h1.6
				c1.8,0,3.2,1.4,3.2,3.2V66.8z"/>
		</g>
		<g>
			<path class="st7" d="M480.7,112.1c0,21-17,38.1-38.1,38.1c-21,0-38.1-17-38.1-38.1s17-38.1,38.1-38.1
				C463.6,74,480.7,91,480.7,112.1z"/>
			<path class="st2" d="M445.6,137l-25.7-22.3c-1-0.9-1.2-2.5-0.3-3.5c0.9-1,2.5-1.2,3.5-0.3l20.6,17.8l16.4-38.4
				c0.5-1.3,2-1.9,3.3-1.3c1.3,0.5,1.9,2,1.3,3.3L445.6,137z"/>
		</g>
		<g>
			<g>
				<path class="st8" d="M26.9,192c14.6,31.2,21.5,56,37.9,85.4C87.5,318.2,88.4,324,88.4,324h7.1c0,0-10.6-58.4-54.9-127.7
					c-12.9-20.2-26.5-31.4-26.5-31.4S24.6,186.9,26.9,192z"/>
				<path class="st4" d="M63.4,255.4c9.8,19.7,28.7,70.6,28.7,70.6h-5.6c0,0-28.8-55.6-35.8-72.3c-7-16.6-29.7-74.6-29.7-74.6
					S53.6,235.7,63.4,255.4z"/>
				<g>
					<path class="st8" d="M93.1,326c0,0-15.1-64-18.8-98c-3.8-34.1,0-85.9,0-85.9s9.5,27.9,14.7,64.3C94.1,242.8,99.3,326,99.3,326
						H93.1z"/>
					<path class="st4" d="M80.7,241.2c2.8,24,13.5,84.8,13.5,84.8h5.7c0,0-4.4-75.8-9.8-111.7c-6-39.5-11.9-59.1-11.9-59.1
						S77.9,217.1,80.7,241.2z"/>
				</g>
				<g>
					<path class="st8" d="M110.7,161.2c0,0-11.9,51.2-12.4,85.2c-0.5,33.9-4.1,79.6-4.1,79.6h8.4c0,0,9.8-45.2,11.7-74.3
						C116.2,222.6,110.7,161.2,110.7,161.2z"/>
					<path class="st4" d="M100.5,324.6c0,0,1.2-54.2,4-78.2c2.8-24,8.8-49,8.8-49.4s1.5,21.9,1.4,33.3c0,11.4-0.4,25-1.5,33.1
						c-1.1,8.1-10.2,61.5-10.2,61.5L100.5,324.6z"/>
				</g>
				<g>
					<path class="st8" d="M147.5,182.8c-5.9,27.9-11.3,59.4-22.3,91.2c-15.3,44-13.2,52-13.2,52h-9.3c0,0,0.6-60.2,32.2-136.2
						c9.2-22.1,18.6-37.4,18.6-37.4S148.6,177.3,147.5,182.8z"/>
					<path class="st4" d="M128.5,230.8c8.2-23.4,18.9-48.1,18.9-48.1s-9.5,57.4-15.5,76c-6.1,18.5-20,55.8-20,55.8
						S119.2,257.7,128.5,230.8z"/>
				</g>
				<path class="st8" d="M32.8,288.4c0,0,3.1,4.8,21.1,13.8C70.4,310.4,72,326,72,326h16.7c0,0-7-19-20.3-29
					C55.2,286.9,32.8,288.4,32.8,288.4z"/>
				<path class="st8" d="M154.5,288.4c0,0-4.6,5.7-20.3,16.1c-15.3,10.2-18.9,21.5-18.9,21.5h-14c0,0,4.5-14.7,17.7-24.7
					C132.3,291.3,154.5,288.4,154.5,288.4z"/>
			</g>
			<g>
				<polygon class="st4" points="61.2,323 127.6,323 116.7,383 71.2,383 				"/>
				<path class="st8" d="M114.9,323c-4.1,23-23,41.1-46.5,43.3l2.8,16.7h45.5l10.9-60H114.9z"/>
			</g>
		</g>
		<g>
			<path class="st9" d="M263.8,428.7c0,5.7-4.6,10.3-10.3,10.3H109.1c-5.7,0-10.3-4.6-10.3-10.3v-81.3c0-5.7,4.6-10.3,10.3-10.3
				h144.3c5.7,0,10.3,4.6,10.3,10.3L263.8,428.7L263.8,428.7z"/>
			<g>
				<g>
					<path class="st6" d="M196.8,416.5c0,3-2.5,5.5-5.5,5.5h-52c-3,0-5.5-2.5-5.5-5.5l0,0c0-3,2.5-5.5,5.5-5.5h52
						C194.3,411,196.8,413.5,196.8,416.5L196.8,416.5z"/>
					<g>
						<g>
							<path class="st8" d="M252.8,359.6c0,1.9-1,3.4-2.9,3.4H136c-1.9,0-4.2-1.5-4.2-3.4v-0.5c0-1.9,2.4-3.1,4.2-3.1h113.9
								c1.9,0,2.9,1.2,2.9,3.1L252.8,359.6L252.8,359.6z"/>
							<path class="st8" d="M252.8,370.3c0,1.9-1,2.7-2.9,2.7H136c-1.9,0-4.2-0.8-4.2-2.7v-0.5c0-1.9,2.4-2.8,4.2-2.8h113.9
								c1.9,0,2.9,0.9,2.9,2.8L252.8,370.3L252.8,370.3z"/>
						</g>
						<path class="st7" d="M127.9,371.1c0,5.3-4.3,9.6-9.6,9.6s-9.6-4.3-9.6-9.6c0-5.3,4.3-9.6,9.6-9.6
							C123.6,361.5,127.9,365.8,127.9,371.1z"/>
					</g>
				</g>
				<g>
					<rect x="133.8" y="400" class="st5" width="18" height="1"/>
					<rect x="159.8" y="400" class="st5" width="53" height="1"/>
					<rect x="219.8" y="400" class="st5" width="34" height="1"/>
				</g>
				<g>
					<rect x="133.8" y="390" class="st5" width="39" height="1"/>
					<rect x="179.8" y="390" class="st5" width="33" height="1"/>
					<rect x="219.8" y="390" class="st5" width="34" height="1"/>
				</g>
				<g>
					<rect x="133.8" y="382" class="st5" width="24" height="2"/>
					<rect x="164.8" y="382" class="st5" width="48" height="2"/>
					<rect x="219.8" y="382" class="st5" width="34" height="2"/>
				</g>
			</g>
		</g>
		<g>
			<path class="st7" d="M257.8,296.2c0,9.8-8,17.8-17.8,17.8H79.5c-9.8,0-17.8-8-17.8-17.8v-1.4c0-9.8,8-17.8,17.8-17.8H240
				c9.8,0,17.8,8,17.8,17.8V296.2z"/>
			<g>
				<polygon class="st3" points="88.9,283.7 92.3,290.6 99.9,291.7 94.4,297 95.7,304.5 88.9,301 82.2,304.5 83.4,297 78,291.7 
					85.5,290.6 				"/>
				<polygon class="st3" points="124.1,284.1 127.5,290.9 135,292 129.5,297.3 130.8,304.9 124.1,301.3 117.3,304.9 118.6,297.3 
					113.1,292 120.7,290.9 				"/>
				<polygon class="st3" points="159.2,283.7 162.6,290.6 170.2,291.7 164.7,297 166,304.5 159.2,301 152.5,304.5 153.8,297 
					148.3,291.7 155.8,290.6 				"/>
				<polygon class="st3" points="194.4,283.7 197.8,290.6 205.3,291.7 199.9,297 201.1,304.5 194.4,301 187.6,304.5 188.9,297 
					183.4,291.7 191,290.6 				"/>
				<polygon class="st3" points="229.5,283.7 232.9,290.6 240.5,291.7 235,297 236.3,304.5 229.5,301 222.8,304.5 224.1,297 
					218.6,291.7 226.2,290.6 				"/>
			</g>
		</g>
		<g>
			<g>
				<g>
					<polygon class="st6" points="250.1,462.7 199.3,352 194.1,296.9 231.2,337.3 282.5,447 275.8,457.7 262.9,464 					"/>
					
						<rect x="237" y="344.2" transform="matrix(0.9086 -0.4177 0.4177 0.9086 -146.9563 138.9515)" class="st10" width="14" height="122"/>
					<polygon class="st2" points="212.3,353 198.9,351.4 194.1,296.9 231.2,337.3 224.9,347 					"/>
					<polygon class="st5" points="196.4,322 192.7,294.1 211,314.9 205.6,322 					"/>
				</g>
				<g>
					<g>
						<path class="st11" d="M184.7,166.3c0,0-1.3,46.5,21.7,78.7c33.9,47.6,86,47.4,114.6,44.1c6.6-0.8,21.1-6,25.1-18.3
							c11.3-34.4-69.7-10.9-104.4-34.2c-26.4-17.8-42-73.1-42-73.1L184.7,166.3z"/>
						<g>
							<path class="st11" d="M177.2,156.6c2.6,5.1,7.4,9.6,7.5,9.7l15.1-2.7c0.6-2.1,1.7-16.2,6.3-25.3c3.8-7.5,2.9-9.6,1.5-10.2
								c-1.4-0.6-3.1-0.9-5.6,3.7c-1,1.9-3.2,5.8-4,7.1c-0.2-2.8-1.3-4.9-2.7-11.6c-1.7-7.9-4.8-19.6-7.8-21.4
								c-2.7-1.6-4.3,2.9-3.8,5.1c0.4,1.6,3.9,13.5,3.4,18.8c-1.5-3-13.1,3.9-13.7,11.2C173.2,143.6,172.7,147.7,177.2,156.6z"/>
							<path class="st12" d="M189.5,136c1,2,2.1,5.8,0.7,7.1c-1.6,1.5-4-2.6-5.2-5c-0.2,0.1-0.4,0.2-0.6,0.3
								c0.1,0.1,0.1,0.2,0.2,0.4c1.1,3,2.3,8.1-0.7,8.9c-2.3,0.6-4.2-4.4-5-7c-0.2,0.1-0.5,0.2-0.7,0.3c0.3,1.5,0.9,2.9,1.1,4.4
								c0.1,0.5,0.1,1,0.1,1.5c0,1.7-2.1-0.3-2.4-0.6c-1.1-1.1-1.6-2.6-1.9-4.1c-0.1,0-0.2,0.1-0.3,0.1c0.3,1.5,0.9,3,1.9,4.3
								c0.5,0.6,2,2,2.9,1.3c0.8-0.7,0.2-2.5,0.1-3.3c0,0,0-0.1,0-0.1c1,2.1,2.3,3.9,4.3,3.8c2.8-0.2,2.7-3.7,2-6.8
								c1.1,1.8,2.6,3.2,4.4,2.5c2.5-0.9,1-5.9-0.1-8.2C189.9,135.7,189.7,135.9,189.5,136z"/>
							<path class="st12" d="M193.5,145.5c0-0.3-0.4-0.3-0.5,0c-1,4.4-2.6,9.6-1,14c0,0.1,0.2,0.1,0.2,0
								C191.4,154.6,193.3,150.3,193.5,145.5z"/>
						</g>
					</g>
					<g>
						<polygon class="st6" points="317.8,313.5 278.1,303 294.8,243 364,251.9 						"/>
						<path class="st6" d="M290.5,455h129.1c-0.7-30,1.6-62.6,7.4-80.4c21-63.6,37.2-78.9,22.3-100.8
							c-10.4-15.3-37.4-22.6-48.6-23.1c-10.2-0.4-40.9-0.1-40.9-0.1l-35.2-3.6c-4.4,12.4-11.9,53-15.8,89
							C299.1,424.2,292.8,444,290.5,455z"/>
						<path class="st10" d="M449.4,273.4c-10.4-15.3-37.4-22.5-48.6-22.9c-0.4,0-0.9,0-1.3,0c0.2,17.3,40.1,11.4,22,46.5
							c-25.8,49.9-80.1,90.4-120.7,103.9c-4.2,26.7-8.7,47.1-10.1,54.1h129.1c-0.7-30,1.6-62.6,7.4-80.4
							C448,311,464.3,295.3,449.4,273.4z"/>
						<polygon class="st10" points="311.8,311.9 317.1,279.5 298,308.2 						"/>
					</g>
					<g>
						<g>
							<path class="st11" d="M360.8,259.5l3.5-32.8l36.8-10.3l-1.4,35.9c0,0-0.5,8.3-13.3,12.5C364.8,272,360.8,259.5,360.8,259.5z"
								/>
							<path class="st12" d="M361.8,250.5c0,0,19-2.2,27.5-14.5c5.4-7.9,4.8-13.4,4.8-13.4l-29.5,10.2c0,0-1.3,0.6-1.6,6.5
								C362.5,247.4,361.8,250.5,361.8,250.5z"/>
							<path class="st11" d="M368.1,173.4c-7.8,8.6-12.6,14.9-18.7,30.6c-7.2,18.7-2,29.1,6.5,32.7c5.6,2.4,14.5,1.4,23.5-1.9
								c9-3.4,17.1-9.3,25.7-21.5c8.6-12.2,6.8-33.4-6.7-41.9C393,168,376.7,163.9,368.1,173.4z"/>
							<path class="st5" d="M346,147.8c-4,10.3-0.2,18.8,4.7,25.7c5.8,8.2,18.2,11.7,35.8,10.8c8.9-0.4,16.2,1,16.4,11.9
								c0.2,11.4-5.4,17.4-4.9,22.6c0.2,2.2,1.1,9.9,1.1,9.9s29.4,4.9,38.5-28c6.9-24.9-4.8-37.2-26.9-43.4c-18-5-12.9-2.8-27.7-5
								c-6.7-1-11.1-2.5-14-6.5c-3.1-4.3-3-16.4-3-16.4S350.7,135.7,346,147.8z"/>
							<g>
								<path class="st11" d="M407.1,221.6c-4.1,3.5-11.5,2.8-12.9-2.2c-0.7-2.5,1.2-7.6,2.9-9.8c3.3-4.4,8-5.5,11.4-1.5
									C411.8,212,411.2,218.1,407.1,221.6z"/>
								<path class="st12" d="M404.7,216.3c-1.6,2.1-3.7,3.2-4.8,2.3c-1.1-0.8-0.8-3.2,0.8-5.3c1.5-2.1,3.7-3.2,4.8-2.3
									C406.6,211.8,406.3,214.1,404.7,216.3z"/>
							</g>
						</g>
						<g>
							<path class="st5" d="M368.5,215C368.5,215,368.5,215,368.5,215c-2.9,0-6-2.3-6.7-4.2c-0.4-0.9-0.2-1.9,0.4-2.6
								c2.7-2.6,12.1-12.8,12.2-12.9c0.3-0.3,0.8-0.3,1.1-0.1c0.3,0.3,0.3,0.7,0,1c-0.4,0.4-9.5,10.2-12.3,12.9
								c-0.2,0.1-0.3,0.4-0.1,0.8c0.5,1.3,3,3,5.3,3c0.4,0,0.7,0.6,0.7,1C369.2,214.4,368.9,215,368.5,215z"/>
							<path class="st5" d="M365.6,224.4c-1.5,0-2.9-0.2-4.2-0.7c-5.1-2.2-6.5-6-6.5-6.1c-0.1-0.4,0.1-0.8,0.5-1
								c0.4-0.1,0.8,0.1,1,0.5l0,0c0,0,1.3,3.3,5.7,5.3c3.5,1.5,9.2-0.1,11-0.8c0.4-0.1,0.8,0,1,0.4c0.1,0.4,0,0.8-0.4,1
								C373.5,222.9,369.5,224.4,365.6,224.4z"/>
							<path class="st5" d="M365.4,193.3c-0.1,0.9-1,1.4-1.9,1.3c-0.9-0.2-1.6-1-1.4-1.8c0.1-0.9,1-1.4,1.9-1.3
								C364.9,191.6,365.6,192.5,365.4,193.3z"/>
							<path class="st5" d="M385,201c-0.1,0.9-1,1.4-1.9,1.3c-0.9-0.2-1.6-1-1.4-1.8c0.1-0.9,1-1.4,1.9-1.3
								C384.5,199.3,385.1,200.2,385,201z"/>
							<path class="st5" d="M371.3,191.1c-0.3,0-0.6-0.2-0.7-0.5c0,0-0.8-1.9-2.9-3.1c-2.5-1.4-4.8-0.1-4.8,0
								c-0.4,0.2-0.8,0.1-1-0.2c-0.2-0.4-0.1-0.8,0.2-1c0.1-0.1,3.1-1.9,6.4,0c2.6,1.5,3.5,3.7,3.5,3.8c0.2,0.4,0,0.8-0.4,1
								C371.5,191.1,371.4,191.1,371.3,191.1z"/>
							<path class="st5" d="M389.3,198.7c-0.3,0-0.6-0.2-0.7-0.5c0,0-0.8-1.9-2.9-3.1c-2.5-1.4-4.8,0-4.8,0c-0.4,0.2-0.8,0.1-1-0.2
								c-0.2-0.4-0.1-0.8,0.2-1c0.1-0.1,3.1-1.9,6.4,0c2.6,1.5,3.5,3.7,3.5,3.8c0.2,0.4,0,0.8-0.4,1
								C389.5,198.6,389.4,198.7,389.3,198.7z"/>
						</g>
					</g>
					<g>
						<g>
							<path class="st11" d="M253,416.1c0,0,65.1,1.7,104.8-14.3c36-14.5,75.9-63.1,84-93.2c5.5-20.4,13-32.3-10.5-44
								c-23.8-11.8-58.6,79.7-91.1,103.3c-12.5,9.1-89.9,25.7-89.9,25.7L253,416.1z"/>
							<path class="st11" d="M213.9,397c-1.8,5.2,2.4,17.6,8.3,21.8c4.4,3.1,9.2,1.8,14.1,0.2c4.9-1.6,17.3-2.9,17.3-2.9l-3.3-22.4
								c0,0-4.3,1.2-9-1.8c-4.7-3-10.2-9-10.9-9.9c-2.7-3.4-8.1-3.8-8.5,0.8c-0.1,2,7.4,10.3,7.4,10.3s-10.6,1.3-11.8-1.4
								C216,388.4,214.3,395.8,213.9,397z"/>
						</g>
						<g>
							<path class="st7" d="M365,326.4c0,0,29.1-46.8,36-53.7c6.9-6.9,23.2-19.8,38.7-10.2c12.4,7.7,17.7,12.9,17.5,27.8
								c-0.2,26.8-34.9,77.4-34.9,77.4L365,326.4z"/>
							<path class="st6" d="M457.1,290.3c-0.2,26.8-34.9,77.4-34.9,77.4l-34.8-25.2c29.8-9,51.5-36.3,51.5-68.5
								c0-4.3-0.4-8.5-1.1-12.6c0.6,0.3,1.2,0.6,1.8,1C452,270.1,457.3,275.4,457.1,290.3z"/>
						</g>
					</g>
				</g>
			</g>
			<path class="st7" d="M318.4,327l-0.4-1.8c0.1,0,14-3.4,22.9-12.8c9-9.4,11.9-19.5,11.9-19.6l1.8,0.5c-0.1,0.4-3,10.7-12.3,20.4
				C332.9,323.4,319,326.8,318.4,327z"/>
			<path class="st7" d="M317.3,354.4l-0.7-1.7c0.2-0.1,18.9-8,29.4-18.3c8.8-8.6,16.8-26.6,16.9-26.7l1.7,0.7
				c-0.3,0.8-8.2,18.5-17.3,27.3C336.6,346.3,318.1,354.1,317.3,354.4z"/>
		</g>
	</g>
</g>
</svg>
