<?xml version="1.0" encoding="utf-8"?>
<!-- Generator: Adobe Illustrator 25.1.0, SVG Export Plug-In . SVG Version: 6.00 Build 0)  -->
<svg version="1.1" id="Слой_1" xmlns="http://www.w3.org/2000/svg" xmlns:xlink="http://www.w3.org/1999/xlink" x="0px" y="0px"
	 viewBox="0 0 3710 3710" style="enable-background:new 0 0 3710 3710;" xml:space="preserve">
<style type="text/css">
	.st0{fill:url(#SVGID_1_);}
	.st1{fill:#7D97F4;}
	.st2{opacity:0.62;fill:#FFFFFF;enable-background:new    ;}
	.st3{opacity:0.79;}
	.st4{fill:#91B3FA;}
	.st5{opacity:0.76;}
	.st6{fill:url(#SVGID_2_);}
	.st7{fill:url(#SVGID_3_);}
	.st8{fill:url(#SVGID_4_);}
	.st9{fill:#FFFFFF;}
	.st10{opacity:0.71;}
	.st11{opacity:0.65;fill:#FFFFFF;enable-background:new    ;}
	.st12{opacity:0.75;fill:#FFFFFF;enable-background:new    ;}
	.st13{opacity:0.75;}
	.st14{fill:url(#SVGID_5_);}
	.st15{fill:url(#SVGID_6_);}
	.st16{fill:url(#SVGID_7_);}
	.st17{fill:url(#SVGID_8_);}
	.st18{fill:url(#SVGID_9_);}
	.st19{fill:url(#SVGID_10_);}
	.st20{fill:url(#SVGID_11_);}
	.st21{fill:url(#SVGID_12_);}
	.st22{fill:url(#SVGID_13_);}
	.st23{fill:url(#SVGID_14_);}
	.st24{fill:url(#SVGID_15_);}
	.st25{fill:url(#SVGID_16_);}
	.st26{opacity:0.6;fill:#FFFFFF;enable-background:new    ;}
	.st27{opacity:0.72;fill:#FFFFFF;enable-background:new    ;}
	.st28{fill:url(#SVGID_17_);}
	.st29{fill:url(#SVGID_18_);}
	.st30{fill:url(#SVGID_19_);}
	.st31{opacity:0.3;}
	.st32{fill:url(#SVGID_20_);}
	.st33{fill:url(#SVGID_21_);}
	.st34{fill:url(#SVGID_22_);}
	.st35{fill:url(#SVGID_23_);}
	.st36{fill:url(#SVGID_24_);}
	.st37{fill:url(#SVGID_25_);}
	.st38{opacity:0.7;fill:#FFFFFF;enable-background:new    ;}
	.st39{fill:url(#SVGID_26_);}
	.st40{fill:url(#SVGID_27_);}
	.st41{fill:url(#SVGID_28_);}
	.st42{fill:url(#SVGID_29_);}
	.st43{fill:url(#SVGID_30_);}
</style>
<g id="Illustration">
	<g>
		
			<linearGradient id="SVGID_1_" gradientUnits="userSpaceOnUse" x1="3651.3721" y1="-423.5571" x2="1110.859" y2="2731.5999" gradientTransform="matrix(1 0 0 -1 0 3710)">
			<stop  offset="0" style="stop-color:#DAE3FE"/>
			<stop  offset="1" style="stop-color:#E9EFFD"/>
		</linearGradient>
		<path class="st0" d="M2960.3,2883.8c-58.8,61.1-114.4,100.6-158.4,131.7c-516.6,366.2-1127.8,259.4-1257.7,233.4
			c-191.8-38.5-562.6-112.9-830.7-424.3C307.9,2353.4,371.1,1611,685.7,1121c57.5-89.6,361.5-587.1,979.3-666.9
			c373.9-48.3,809.7,49.1,1125.4,310.3C3452.9,1312.8,3405.8,2420.5,2960.3,2883.8z"/>
		<g>
			<g>
				<path class="st1" d="M1867.5,3173.5c0,0,564.1-1425,1402.1-1580.7c14.9-2.8,28.4,9.1,27.7,24.2
					C3288.8,1792.9,3181.4,2723.1,1867.5,3173.5z"/>
				<path class="st2" d="M3119,1824c-42.8,61.1-87.6,120.5-133.1,179.5c-11.3,14.8-22.9,29.3-34.4,44
					c-11.6,14.6-22.9,29.4-34.6,43.8l-35.1,43.4c-11.8,14.4-23.3,29.1-35.3,43.3c-23.9,28.5-47.7,57.2-71.8,85.6l-73.1,84.5
					c-49.6,55.5-99.2,111.1-150.4,165.3l-38.1,40.9c-12.5,13.8-25.8,26.8-38.7,40.3l-77.7,80.3l-79.7,78.4
					c-13.3,13-26.5,26.2-40.1,39l-41.1,37.9c-27.5,25.2-54.6,50.7-82.6,75.4l-84.9,72.8l-21.3,18.1c-7.2,6-14.1,12.1-21.5,17.9
					l-43.9,34.7c-14.6,11.6-29.4,22.9-44,34.4c-14.7,11.5-29.4,22.9-44.2,34.2c-1.1,0.9-2.8,0.6-3.6-0.5c-0.8-1.1-0.7-2.6,0.4-3.5
					l0.1-0.1c14.1-12.1,28.3-24.1,42.6-36.1c14.2-12,28.4-24.1,42.7-35.9l42.9-35.7c14.1-12.1,27.8-24.7,41.9-36.9l84-73.4
					l82.3-75.3l41.2-37.6c6.9-6.3,13.4-12.9,20.2-19.3l20.2-19.3l80.7-77c52.5-52.7,105.9-104.6,156.5-159.1
					c25.6-27,51.5-53.7,76.2-81.5c24.9-27.6,50.1-55,74.9-82.8l73.4-84.1c24.2-28.2,48-56.9,72.1-85.3
					c12.1-14.1,23.7-28.7,35.5-43.1l35.3-43.3c11.8-14.4,23.2-29.1,34.8-43.7c11.5-14.6,23.2-29.1,34.6-43.8
					c45.4-58.9,90.2-118.4,132.8-179.3l0,0c0.8-1.2,2.4-1.5,3.6-0.6C3119.5,1821.2,3119.8,1822.8,3119,1824L3119,1824z"/>
			</g>
			<g class="st3">
				<path class="st4" d="M1730.8,2356.3c0,0,274.2-1258.3,1102-1910.6c10.8-8.5,26.8-3.1,30.1,10.2
					C2915,666.5,3186.1,2010.5,1730.8,2356.3z"/>
				<path class="st2" d="M2744.9,808.6c-9.5,36.5-20.6,72.5-32.2,108.3c-11.7,35.8-24,71.4-37,106.7
					c-26.2,70.6-54.7,140.3-85.4,209.1c-7.6,17.2-15.7,34.2-23.5,51.4c-7.9,17.1-16.3,33.9-24.5,50.9c-8.1,17-16.8,33.7-25.3,50.5
					l-12.8,25.2l-13.3,24.9c-35.4,66.5-72.7,132-112.8,195.8c-40.3,63.7-82.2,126.4-127.4,186.7c-5.6,7.6-11.1,15.2-16.8,22.8
					l-17.3,22.3l-17.3,22.3c-5.8,7.4-11.4,15-17.5,22.2l-36,43.6l-9,10.9l-9.4,10.6l-18.7,21.2c-99.4,113.4-210.6,216.3-330.8,306.9
					c-1,0.7-2.4,0.5-3.1-0.4c-0.7-1-0.6-2.3,0.4-3.1l0.1,0l43.7-35.6l21.9-17.7l21.2-18.6l42.3-37.2l40.9-38.7
					c6.8-6.5,13.7-12.8,20.4-19.4l19.8-20c13.1-13.4,26.5-26.5,39.4-40.2c25.4-27.7,51.3-54.8,75.4-83.5l18.4-21.3l9.2-10.6
					l8.9-10.9l35.6-43.6c6-7.2,11.6-14.7,17.4-22.1l17.2-22.3l17.2-22.3c5.6-7.5,11.1-15.2,16.6-22.7
					c44.8-60.2,86.2-122.8,126.1-186.4c40.1-63.4,77.6-128.5,113-194.6l13.3-24.8l12.9-25c8.5-16.7,17.3-33.3,25.4-50.2
					c16.7-33.6,32.7-67.5,48.6-101.6c31.4-68.2,60.6-137.4,87.6-207.5c13.7-35,26.6-70.2,38.9-105.7c6.2-17.7,12.1-35.5,17.9-53.4
					c5.8-17.8,11.4-35.8,16.6-53.8l0,0c0.3-1.2,1.6-1.9,2.8-1.5C2744.6,806.2,2745.2,807.5,2744.9,808.6z"/>
			</g>
		</g>
		<g class="st5">
			<path class="st4" d="M1300.6,2288.7c0,0-106.9-1116.3-755.2-1765.8c-8.5-8.5-22.8-5.5-27,5.7
				C451.6,705.4,78.2,1839.3,1300.6,2288.7z"/>
			<path class="st2" d="M588.1,845.3c11.1,64.4,25.4,128.3,41.7,191.5c16.1,63.4,34.2,126.2,54.4,188.4c10.2,31,20.6,62,31.5,92.8
				c5.3,15.5,11.1,30.7,16.8,46l8.6,23l9,22.8c23.8,60.8,49.5,120.9,77.6,179.9c27.9,59,57.2,117.4,89.7,174.1
				c4,7.1,7.9,14.3,12,21.3l12.5,21l12.5,21c4.2,7,8.3,14.1,12.7,20.9l26.2,41.3l6.5,10.4l6.8,10.2l13.7,20.3
				c17.9,27.4,37.5,53.5,56.5,80c9.7,13.1,19.9,25.9,29.9,38.8l15,19.4c5.1,6.4,10.4,12.6,15.6,18.9l31.3,37.7l32.6,36.6l16.3,18.3
				l17,17.6l34,35.4l0,0c0.9,0.9,0.8,2.3-0.1,3.2c-0.9,0.8-2.2,0.8-3.1,0c-94.8-90.6-180.4-191-254.7-299.3l-14-20.2l-7-10.1
				l-6.7-10.3l-26.6-41.4c-4.5-6.8-8.6-14-12.9-21l-12.7-21.1l-12.7-21.1c-4.1-7.1-8.1-14.3-12.1-21.4
				c-32.8-56.8-62.6-115.4-90.9-174.6c-28.1-59.3-53.6-119.9-77.3-181l-8.9-22.9l-8.5-23.1c-5.6-15.4-11.4-30.8-16.7-46.3
				c-5.3-15.5-10.9-30.9-15.9-46.6c-5-15.6-10.1-31.2-14.9-46.9c-38.5-125.4-70.6-252.9-89.4-382.8c-0.2-1.2,0.7-2.4,1.9-2.5
				C586.7,843.2,587.8,844,588.1,845.3L588.1,845.3z"/>
		</g>
		<g>
			
				<linearGradient id="SVGID_2_" gradientUnits="userSpaceOnUse" x1="2341.1829" y1="3269.6519" x2="-687.7001" y2="-2225.6123" gradientTransform="matrix(1 0 0 -1 0 3710)">
				<stop  offset="0" style="stop-color:#09005D"/>
				<stop  offset="1" style="stop-color:#1A0F91"/>
			</linearGradient>
			<path class="st6" d="M725.8,589.3c-9.3,438-39.4,1949-25,2484.5c1.5,56.7,40.4,102.3,88.9,104.1c239.8,9.2,1119,32.5,1511.2,13.2
				c81.7-4,146.7-81.4,148.4-177.1c8.2-459.8,26.1-1753-16.6-2345.4c-5.1-71-52.7-127.5-113.3-134.6
				c-261.2-30.6-1144.1-105.3-1483-79.6C775.2,459.1,727.3,517.7,725.8,589.3z"/>
			<path class="st1" d="M832.8,723.7c-12.9,353.6-53.6,1529.8-40.7,1964.7c1.9,63.6,44.7,115,99,118.7
				c223.5,15.3,986,49,1313.8,18.3c59-5.5,105.3-61.4,108.5-130.6c16.6-360.7,64.3-1455.9,51.9-1886c-2-68.6-47.4-124.6-105.9-130.8
				c-241.8-25.4-1052.1-85.8-1330.6-68C876.6,613.4,835,662.5,832.8,723.7z"/>
			
				<linearGradient id="SVGID_3_" gradientUnits="userSpaceOnUse" x1="1432.551" y1="4844.0283" x2="1536.0515" y2="3788.3152" gradientTransform="matrix(1 0 0 -1 0 3710)">
				<stop  offset="0" style="stop-color:#4F52FF"/>
				<stop  offset="1" style="stop-color:#4042E2"/>
			</linearGradient>
			<path class="st7" d="M1432.3,541.4L1432.3,541.4c0,13.4,9,24.5,20.4,25.2c56.6,3.5,216.2,13.3,287.5,18.1
				c14.1,1,25.1-13.8,22.4-30l-0.5-2.8c-1.8-11-9.6-19.3-19.2-20.4c-48.2-5.2-193.7-19.5-290-15.5
				C1441.4,516.6,1432.3,527.8,1432.3,541.4z"/>
			<g>
				<g>
					
						<linearGradient id="SVGID_4_" gradientUnits="userSpaceOnUse" x1="1209.2579" y1="2579.252" x2="1878.2679" y2="2579.252" gradientTransform="matrix(1 0 0 -1 0 3710)">
						<stop  offset="0" style="stop-color:#4F52FF"/>
						<stop  offset="1" style="stop-color:#4042E2"/>
					</linearGradient>
					<circle class="st8" cx="1543.8" cy="1130.7" r="334.5"/>
					<path class="st9" d="M1646.2,1004.3c0,56.6-45.9,117.8-102.6,117.8s-102.6-61.1-102.6-117.8s45.9-96.8,102.6-96.8
						S1646.2,947.7,1646.2,1004.3z"/>
					<path class="st9" d="M1416.3,1340.2h250.4c26.4,0,49.7-17,57.7-42.1l13.5-42.1c9.9-30.8-6.2-64.2-36.6-75.3
						c-101.9-37.3-207.2-32.5-315.2,3.4c-30.2,10.1-47,42.4-38.7,73.2l10.4,38.2C1365,1321.9,1389,1340.2,1416.3,1340.2z"/>
				</g>
				<g class="st10">
					<path class="st11" d="M2185.3,1999.5H964.5c-3.7,0-6.8-3-6.8-6.8v-176.4c0-3.7,3-6.8,6.8-6.8h1220.8c3.7,0,6.8,3,6.8,6.8v176.4
						C2192.1,1996.4,2189.1,1999.5,2185.3,1999.5z"/>
					<path class="st11" d="M2178.7,2309.3H957.9c-3.7,0-6.8-3-6.8-6.8v-176.4c0-3.7,3-6.8,6.8-6.8h1220.8c3.7,0,6.8,3,6.8,6.8v176.4
						C2185.4,2306.3,2182.4,2309.3,2178.7,2309.3z"/>
					<path class="st11" d="M1940.3,2678.8h-780.7c-4.6,0-8.3-3.7-8.3-8.3v-225.4c0-4.6,3.7-8.3,8.3-8.3h780.7c4.6,0,8.3,3.7,8.3,8.3
						v225.4C1948.7,2675.1,1944.9,2678.8,1940.3,2678.8z"/>
				</g>
				<path class="st12" d="M1735.6,1958.1h-711.2c-6.6,0-12-5.4-12-12v-81.5c0-6.6,5.4-12,12-12h711.2c6.6,0,12,5.4,12,12v81.5
					C1747.6,1952.7,1742.3,1958.1,1735.6,1958.1z"/>
				<g class="st13">
					<ellipse class="st9" cx="1038" cy="2209.1" rx="43.3" ry="43.3"/>
					<circle class="st9" cx="1156.8" cy="2211.3" r="43.3"/>
					<ellipse class="st9" cx="1271.1" cy="2217" rx="43.3" ry="43.3"/>
					<circle class="st9" cx="1390" cy="2219.1" r="43.3"/>
					<circle class="st9" cx="1508.9" cy="2217.9" r="43.3"/>
					<circle class="st9" cx="1627.7" cy="2220.2" r="43.3"/>
				</g>
			</g>
		</g>
		<g>
			
				<linearGradient id="SVGID_5_" gradientUnits="userSpaceOnUse" x1="-3521.7161" y1="469.3175" x2="-3147.1106" y2="1433.6857" gradientTransform="matrix(-1 0 0 -1 -1102.3174 3710)">
				<stop  offset="0" style="stop-color:#FEBBBA"/>
				<stop  offset="1" style="stop-color:#FF928E"/>
			</linearGradient>
			<path class="st14" d="M2122.3,2361.5l132.7,33.2l-33.2,248.8c0,0,49.8,49.8,66.3,116.1c16.6,66.3,31.9,344.9,31.9,344.9l31.5,19
				l3.8,15.9l-91.6,123.2l15.2-98c2.4-15.6-1.8-47.1-0.5-47.8c-49.8-132.7-156.2-506.5-156.2-506.5L2122.3,2361.5L2122.3,2361.5z"/>
			
				<linearGradient id="SVGID_6_" gradientUnits="userSpaceOnUse" x1="-3527.4084" y1="-2632.6343" x2="-2289.2805" y2="11837.9795" gradientTransform="matrix(-1 0 0 -1 -1102.3174 3710)">
				<stop  offset="0" style="stop-color:#FEBBBA"/>
				<stop  offset="1" style="stop-color:#FF928E"/>
			</linearGradient>
			<path class="st15" d="M2083.5,3141.2c1.4,0,2.8,0.1,4.3,0c-6.4-80-35.7-432-65-564c-33.2-149.3,49.8-447.8,49.8-447.8
				l149.3,149.3l-82.9,282c56.8,85.2-9.3,584.5-7.8,584.3l-0.1,1.1l21.6,29.8l-2.6,16.1l-132.2,78l52-84.5
				C2078,3172,2082.6,3156.8,2083.5,3141.2z"/>
			
				<linearGradient id="SVGID_7_" gradientUnits="userSpaceOnUse" x1="-3482.9023" y1="1994.942" x2="-3324.1155" y2="1994.942" gradientTransform="matrix(-1 0 0 -1 -1102.3174 3710)">
				<stop  offset="0" style="stop-color:#FEBBBA"/>
				<stop  offset="1" style="stop-color:#FF928E"/>
			</linearGradient>
			<path class="st16" d="M2251.4,1467.3c0,0,290.6,327.6,0,495.5l-29.6-21.4c0,0,144.3-138.2,0-307.3L2251.4,1467.3z"/>
			
				<linearGradient id="SVGID_8_" gradientUnits="userSpaceOnUse" x1="-2973.0078" y1="441.9678" x2="-2595.2827" y2="1021.4919" gradientTransform="matrix(-1 0 0 -1 -867.1565 3710)">
				<stop  offset="0" style="stop-color:#4F52FF"/>
				<stop  offset="1" style="stop-color:#4042E2"/>
			</linearGradient>
			<path class="st17" d="M2009,3282.1h42.2c7.9,0,15.3-3.6,20.2-9.9c13.2-17.1,40.4-50.4,53.4-51.3c17.5-1.2,15.3,61.2,15.3,61.2
				h9.8l12.5-77.5c3.1-19.5-6.6-38.8-24.1-47.9l0,0c0,0-4,29.6-25.7,42.8c-21.7,13.1-88.5,60.1-88.5,60.1s-8.2-1.2-17.1,0.5
				C1993.7,3262.4,1995.5,3282.1,2009,3282.1z"/>
			
				<linearGradient id="SVGID_9_" gradientUnits="userSpaceOnUse" x1="-3313.344" y1="265.4818" x2="-2894.2249" y2="989.8868" gradientTransform="matrix(-1 0 0 -1 -867.1565 3710)">
				<stop  offset="0" style="stop-color:#4F52FF"/>
				<stop  offset="1" style="stop-color:#4042E2"/>
			</linearGradient>
			<path class="st18" d="M2260.5,3277.3l38.9-16.4c7.3-3.1,12.7-9.3,14.8-16.9c5.5-20.9,17.7-62.1,29.4-68
				c15.7-7.9,37.8,50.5,37.8,50.5l9.1-3.8l-18.6-76.2c-4.7-19.2-21.1-33.2-40.8-34.9l0,0c0,0,7.8,28.9-7.2,49.4
				c-15,20.5-58.2,89.7-58.2,89.7s-8,2.1-15.6,7.1C2238.6,3265.1,2248,3282.5,2260.5,3277.3z"/>
			
				<linearGradient id="SVGID_10_" gradientUnits="userSpaceOnUse" x1="2509.2087" y1="2028.7927" x2="2178.0359" y2="1580.3291" gradientTransform="matrix(1 0 0 -1 0 3710)">
				<stop  offset="0" style="stop-color:#4F52FF"/>
				<stop  offset="1" style="stop-color:#4042E2"/>
			</linearGradient>
			<path class="st19" d="M2034.5,1876.9c0,0,4.9,29.9-2.3,112.1c-7.1,82.2-41.3,275.2-34.4,459.8c0,0,97.1,22.6,265.9,11.9
				c0,0,71.2-288.3,53.9-397.8c-17.3-109.6-111.4-188.2-111.4-188.2L2034.5,1876.9z"/>
			
				<linearGradient id="SVGID_11_" gradientUnits="userSpaceOnUse" x1="-3309.4905" y1="2349.2285" x2="-3196.7163" y2="2349.2285" gradientTransform="matrix(-1 0 0 -1 -1102.3174 3710)">
				<stop  offset="0" style="stop-color:#FEBBBA"/>
				<stop  offset="1" style="stop-color:#FF928E"/>
			</linearGradient>
			<polygon class="st20" points="2106.3,1327.7 2094.4,1467.3 2207.2,1467.3 2179.1,1254.2 			"/>
			
				<linearGradient id="SVGID_12_" gradientUnits="userSpaceOnUse" x1="3517.7058" y1="2507.1526" x2="3055.4434" y2="2355.365" gradientTransform="matrix(1 0 0 -1 0 3710)">
				<stop  offset="0" style="stop-color:#FF928E"/>
				<stop  offset="1" style="stop-color:#FE7062"/>
			</linearGradient>
			<path class="st21" d="M2240.6,1448c-38.9-2.1-125.9-6.1-187.6-2.8c-32.5,1.8-59.6,25.1-66.3,56.9l-15,72.1
				c-5.6,26.8-4.8,54.6,2.4,81.1l60.4,221.7c0,0,53.7,32.3,171.6-2.3c0,0,103.6-247,61.2-404.9
				C2264,1457.5,2253.3,1448.7,2240.6,1448z"/>
			
				<linearGradient id="SVGID_13_" gradientUnits="userSpaceOnUse" x1="-2647.8274" y1="2284.9343" x2="-3623.1877" y2="1726.1682" gradientTransform="matrix(-1 0 0 -1 -1102.3174 3710)">
				<stop  offset="0" style="stop-color:#FEBBBA"/>
				<stop  offset="1" style="stop-color:#FF928E"/>
			</linearGradient>
			<path class="st22" d="M1989.7,1489.2c-16.6,43.8-31.6,89.6-47.7,132.6c-8.2,21.5-16.5,42.6-25.4,62c-4.5,9.6-9.4,18.5-14,26.5
				c-4.5,8-9.7,14.6-12.3,17.6c-0.5,0.5,1.2,0.8,1.8,0.8c0.4,0-11.2,1.9-14.8,2.5l-13.9-0.1c-19.9-1-42.4-4.5-65-8.9
				c-45.6-8.5-93-20.4-141.7-29.5l-0.4-0.1c-9.3-1.7-18.3,4.4-20,13.7c-1.1,6.1,1.2,12.1,5.5,16c19.6,17.3,40.4,31.5,62,45.3
				c10.9,6.6,21.9,13.2,33.1,19.4c11.5,5.8,22.9,11.7,34.9,17.2c24,10.5,48.8,20.1,77.4,26.3c7.5,1.3,14.9,2.6,22.7,3.6
				c8.7,0.3,16.5,1.1,26,0.5c5-0.5,10.1-1.1,15.1-1.8c2.7-0.5,4.7-0.5,7.9-1.4c3.5-1,6.9-2.2,10.3-3.5c7.1-2.5,11.7-5.6,17.5-8.8
				c4.8-3.2,9.2-6.5,13.4-9.8c15.6-13.3,25.3-26.5,33.9-39.2c8.5-12.7,15.3-25.4,21.4-37.8c12.2-24.9,21.7-49.5,29.4-74.3
				c15.6-49.7,26.2-98.5,30.7-150.4c2.1-24.9-16.3-46.7-41.1-48.9c-20.6-1.8-39.1,10.5-46.1,28.9L1989.7,1489.2z"/>
			
				<linearGradient id="SVGID_14_" gradientUnits="userSpaceOnUse" x1="-2550.9126" y1="2115.7634" x2="-3526.2725" y2="1556.9982" gradientTransform="matrix(-1 0 0 -1 -1102.3174 3710)">
				<stop  offset="0" style="stop-color:#FEBBBA"/>
				<stop  offset="1" style="stop-color:#FF928E"/>
			</linearGradient>
			<path class="st23" d="M1672,1715.1l-20.1-47.8l-105.9-26.4c0,0-8.5,18.4,36,26.4c0,0-15.9,17.6-7.4,38.2
				C1583,1726.2,1673,1746.9,1672,1715.1z"/>
			
				<linearGradient id="SVGID_15_" gradientUnits="userSpaceOnUse" x1="-3121.6575" y1="2349.2739" x2="-3340.8083" y2="2669.73" gradientTransform="matrix(-1 0 0 -1 -1102.3174 3710)">
				<stop  offset="0" style="stop-color:#FEBBBA"/>
				<stop  offset="1" style="stop-color:#FF928E"/>
			</linearGradient>
			<path class="st24" d="M2058.5,1166.5c-4,2.4-35.8,114.3-9.2,161.2c26.6,46.9,107.8-5.6,129.8-73.5
				C2201.1,1186.4,2165.8,1103.3,2058.5,1166.5z"/>
			
				<linearGradient id="SVGID_16_" gradientUnits="userSpaceOnUse" x1="-3002.5725" y1="2578.2295" x2="-3313.032" y2="2174.6323" gradientTransform="matrix(-1 0 0 -1 -867.1565 3710)">
				<stop  offset="0" style="stop-color:#09005D"/>
				<stop  offset="1" style="stop-color:#1A0F91"/>
			</linearGradient>
			<path class="st25" d="M2268.9,1254.2c18.2,89.2,78.6,64.8,121.3,104.5c69.3,64.3,168.4-2,264.7,59c69.5,44,103,156.6,69.7,247.5
				c-46.2,125.9-204.2,177.7-286,139.4c-78.2-36.7-67.1-146.4-172.4-188.9c-44.7-18-66.8-6.3-93.5-33
				c-46.9-46.7-34.2-137.4-29.3-172.4c10.6-75.8,36-89.5,23.8-122.9c-23.6-64.8-133.8-51.4-143-97.2
				c-8.4-41.7,71.5-120.6,146.7-108.2C2287.2,1101.4,2260.8,1214.5,2268.9,1254.2z"/>
			<path class="st26" d="M2689.9,1643.9c1.4,0,2.6-0.9,3-2.3c14.9-61.8,8.1-112.5-20.1-150.7c-46.8-63.4-137.9-69.6-138.8-69.7
				c-1.4-0.2-3.1,1.2-3.2,2.9c-0.1,1.7,1.2,3.1,2.9,3.2c0.9,0.1,89.2,6.2,134.3,67.3c27.1,36.7,33.5,85.6,19,145.6
				c-0.4,1.6,0.6,3.3,2.2,3.7C2689.4,1643.9,2689.6,1643.9,2689.9,1643.9z"/>
			<path class="st27" d="M2391.7,1700.5c0.1,0,0.3,0,0.4,0c0.8-0.2,1.3-1,1.1-1.9c-14.5-55.7-40-94.3-75.6-114.9
				c-26-15-50.3-16.4-71.7-17.6c-20.7-1.2-38.5-2.2-52.9-15c-29.7-26.4-28-89.9,5.1-188.8c0.3-0.8-0.2-1.7-1-1.9
				c-0.8-0.3-1.7,0.2-1.9,1c-33.5,100.1-35,164.7-4.2,192.1c15.2,13.5,33.5,14.5,54.8,15.8c21.1,1.2,45,2.6,70.4,17.2
				c35,20.2,59.9,58.2,74.2,113C2390.4,1700.1,2391,1700.5,2391.7,1700.5z"/>
			<path class="st27" d="M2225.9,1232.1c0.2,0,0.3,0,0.5-0.1c0.8-0.3,1.2-1.1,1-1.9c-11.5-34.3-44.8-29.2-80-23.8
				c-22.3,3.4-45.3,7-64.8,1.2c-14.6-4.3-23.2-11-25.7-19.9c-4.3-15.1,10.7-32,10.8-32.2c0.6-0.6,0.5-1.6-0.1-2.1
				c-0.6-0.6-1.6-0.5-2.1,0.1c-0.7,0.7-16.2,18.3-11.5,35c2.8,10,12.2,17.4,27.8,22c20.2,6,43.6,2.4,66.2-1.1
				c35.3-5.4,65.9-10.1,76.6,21.8C2224.6,1231.7,2225.2,1232.1,2225.9,1232.1z"/>
		</g>
		<g>
			<g>
				
					<linearGradient id="SVGID_17_" gradientUnits="userSpaceOnUse" x1="3091.8804" y1="3738.4316" x2="2654.6394" y2="2124.0073" gradientTransform="matrix(1 0 0 -1 0 3710)">
					<stop  offset="0" style="stop-color:#E1473D"/>
					<stop  offset="1" style="stop-color:#E9605A"/>
				</linearGradient>
				<path class="st28" d="M2561.5,885.6c0-157,133-284.3,292.6-284.3c154.9,0,277.2,120.6,277.2,269.3s-122.3,275.7-277.2,283.9
					C2694.6,1162.9,2561.5,1042.6,2561.5,885.6z"/>
			</g>
			<g>
				
					<linearGradient id="SVGID_18_" gradientUnits="userSpaceOnUse" x1="3018.2141" y1="3343.103" x2="2749.1365" y2="2542.7698" gradientTransform="matrix(1 0 0 -1 0 3710)">
					<stop  offset="0" style="stop-color:#FF928E"/>
					<stop  offset="1" style="stop-color:#FE7062"/>
				</linearGradient>
				<path class="st29" d="M2588.2,884.9c0-142.3,120.6-257.7,265.2-257.6c140.4,0,251.2,109.3,251.2,244.1s-110.8,249.9-251.2,257.3
					C2708.8,1136.2,2588.2,1027.2,2588.2,884.9z"/>
			</g>
			<g>
				<path class="st9" d="M2767.5,868.7h-23.8V774c0-37.2,27.8-68.6,64.8-73.1l48.6-5.9c20.9-2.5,42,4,57.7,18
					c15.8,14,24.8,34.1,24.8,55.1v82.7h-23.8v-82.7c0-14.3-6.1-27.9-16.8-37.4c-10.7-9.5-24.9-13.9-39.1-12.2l-48.6,5.9
					c-25,3-43.9,24.3-43.9,49.5L2767.5,868.7L2767.5,868.7z"/>
				<path class="st9" d="M2736.7,847.5l208.4-11.5c8.5-0.5,15.6,6.3,15.6,14.7v165.1c0,8.2-6.6,14.8-14.8,14.8h-203.3
					c-8,0-14.5-6.3-14.8-14.3l-5-153.5C2722.5,854.7,2728.7,847.9,2736.7,847.5z"/>
				
					<linearGradient id="SVGID_19_" gradientUnits="userSpaceOnUse" x1="2923.5518" y1="3555.8823" x2="2800.2202" y2="2359.0164" gradientTransform="matrix(1 0 0 -1 0 3710)">
					<stop  offset="0" style="stop-color:#FF928E"/>
					<stop  offset="1" style="stop-color:#FE7062"/>
				</linearGradient>
				<path class="st30" d="M2875.7,983.2l-12.6-36.3c-1.5-4.4-0.5-9.2,2.8-12.5c6.5-6.5,10.3-15.7,9.9-25.7
					c-0.8-17.7-15.3-32-32.9-32.7c-19.6-0.8-35.7,14.9-35.7,34.3c0,10.8,5,20.4,12.7,26.7c4,3.3,5.7,8.6,4,13.5l-11.4,32.7
					c-2.8,8,3.1,16.3,11.6,16.3h40.2C2872.6,999.5,2878.5,991.2,2875.7,983.2z"/>
			</g>
		</g>
		<g>
			<g>
				<g class="st31">
					
						<linearGradient id="SVGID_20_" gradientUnits="userSpaceOnUse" x1="3848.4946" y1="-7209.2593" x2="4504.0513" y2="-7209.2593" gradientTransform="matrix(-0.4445 -0.8958 -0.8958 0.4445 -3843.9065 9753.0088)">
						<stop  offset="0" style="stop-color:#FF928E"/>
						<stop  offset="1" style="stop-color:#FE7062"/>
					</linearGradient>
					<path class="st32" d="M1120.5,2976.7c2.5,5.3,0.9,11.9-4,15.1c-10.6,7.1-21.7,13.8-33,19.9c-5.5,3-12.2,0.7-15.1-5
						c0-0.1-0.1-0.1-0.1-0.2c-2.7-5.7-0.6-12.7,4.8-15.6c10.7-5.8,21.2-12.2,31.3-18.9c5.2-3.5,12.1-1.8,15.4,3.6
						C1120.1,2975.9,1120.3,2976.3,1120.5,2976.7z M1033.1,3021.3c0.2,0.4,0.4,0.8,0.5,1.3c2.1,6.1-0.9,12.8-6.7,15
						c-11.9,4.5-24.2,8.4-36.3,11.8c-6,1.6-12.1-2.1-13.7-8.4c-1.6-6.3,2-12.7,7.9-14.3c11.6-3.2,23.2-7,34.5-11.2
						C1024.7,3013.4,1030.6,3016,1033.1,3021.3z M938.4,3044.6c0.6,1.2,0.9,2.5,1.1,3.8c0.7,6.4-3.6,12.3-9.8,13
						c-12.6,1.6-25.3,2.6-38,3c-6.2,0.2-11.3-4.9-11.5-11.4c-0.2-6.5,4.6-11.9,10.8-12.1c12-0.4,24.1-1.3,36.1-2.8
						C931.9,3037.5,936.4,3040.3,938.4,3044.6z M841.1,3045c0.9,1.9,1.3,4.2,1.1,6.5c-0.7,6.4-6.2,11.1-12.3,10.4
						c-12.6-1.4-25.3-3.5-37.7-6c-6-1.3-10-7.4-8.8-13.8c1.2-6.4,7-10.5,13.1-9.3c11.8,2.4,23.8,4.4,35.8,5.7
						C836.2,3039,839.5,3041.6,841.1,3045z M746.1,3022.7c1.3,2.7,1.6,5.9,0.6,9c-2,6.1-8.3,9.4-14.2,7.3
						c-11.9-4.3-23.9-9.2-35.5-14.6c-5.6-2.6-8.2-9.5-5.7-15.5c2.5-5.9,9.1-8.6,14.7-6c11,5.1,22.4,9.8,33.7,13.9
						C742.6,3017.9,744.9,3020,746.1,3022.7z M658.1,2978.9c1.7,3.5,1.6,7.8-0.5,11.4c-3.2,5.5-10.1,7.2-15.4,3.8
						c-10.8-7-21.4-14.6-31.5-22.5c-5-3.9-6-11.2-2.3-16.4c3.7-5.2,10.7-6.3,15.6-2.4c9.7,7.5,19.7,14.7,30,21.4
						C655.8,2975.3,657.2,2977,658.1,2978.9z M452,2606c0.7,1.5,1.1,3.1,1.2,4.8c0.4,12.6,1.4,25.3,2.8,37.9
						c0.7,6.4-3.6,12.3-9.7,13c-6.1,0.8-11.7-3.8-12.4-10.3c-1.5-13.2-2.5-26.6-3-39.9c-0.2-6.5,4.6-11.9,10.8-12.1
						C446.1,2599.3,450.1,2602,452,2606z M581.6,2915.7c2.1,4.4,1.4,9.8-2,13.4c-4.3,4.6-11.4,4.7-15.8,0.1
						c-9-9.3-17.8-19.2-26-29.3c-4-4.9-3.5-12.3,1.2-16.5c4.7-4.2,11.7-3.6,15.8,1.3c7.8,9.6,16.1,19,24.7,27.8
						C580.3,2913.5,581.1,2914.5,581.6,2915.7z M466.4,2707.1c0.3,0.7,0.6,1.4,0.8,2.2c3.1,12.2,6.7,24.4,10.8,36.3
						c2.1,6.1-0.9,12.8-6.7,15c-5.8,2.2-12.2-1-14.3-7.1c-4.3-12.5-8.1-25.4-11.4-38.2c-1.6-6.3,1.9-12.7,7.9-14.3
						C458.7,2699.5,464,2702.2,466.4,2707.1z M520.4,2836.2c2.5,5.3,0.9,11.8-4,15.1c-5.2,3.5-12.1,1.9-15.4-3.6
						c-6.8-11.2-13.2-22.9-19.1-34.6c0-0.1-0.1-0.1-0.1-0.2c-2.7-5.7-0.6-12.6,4.8-15.6c5.5-3,12.2-0.8,15.1,5
						c5.6,11.2,11.7,22.3,18.1,32.9C520,2835.4,520.2,2835.8,520.4,2836.2z"/>
					
						<linearGradient id="SVGID_21_" gradientUnits="userSpaceOnUse" x1="4536.8511" y1="-7048.8687" x2="4575.7896" y2="-7048.8687" gradientTransform="matrix(-0.4445 -0.8958 -0.8958 0.4445 -3843.9065 9753.0088)">
						<stop  offset="0" style="stop-color:#FF928E"/>
						<stop  offset="1" style="stop-color:#FE7062"/>
					</linearGradient>
					<path class="st33" d="M456.3,2523.7c1,2.1,1.4,4.5,1,6.9c-0.8,6-1.6,12.1-2.2,18.1c-0.6,6.4-6.1,11.1-12.3,10.4
						c-6.1-0.7-10.6-6.5-9.9-12.9c0.6-6.4,1.4-12.8,2.3-19.1c0.9-6.4,6.6-10.8,12.7-9.9C451.7,2517.9,454.7,2520.4,456.3,2523.7z"/>
				</g>
				<g class="st31">
					
						<linearGradient id="SVGID_22_" gradientUnits="userSpaceOnUse" x1="4743.356" y1="-7339.3184" x2="4770.2847" y2="-7339.3184" gradientTransform="matrix(-0.4445 -0.8958 -0.8958 0.4445 -3843.9065 9753.0088)">
						<stop  offset="0" style="stop-color:#FF928E"/>
						<stop  offset="1" style="stop-color:#FE7062"/>
					</linearGradient>
					<path class="st34" d="M633.4,2218.7c2.4,5.1,1,11.4-3.5,14.7c-4.7,3.5-9.4,7.2-13.9,10.9c-4.9,4-11.9,3-15.7-2.1
						c-3.8-5.1-2.9-12.5,1.9-16.5c4.8-3.9,9.8-7.8,14.7-11.5c5-3.8,12-2.5,15.6,2.8C632.8,2217.6,633.2,2218.2,633.4,2218.7z"/>
					
						<linearGradient id="SVGID_23_" gradientUnits="userSpaceOnUse" x1="4101.4819" y1="-7628.3086" x2="4777.3711" y2="-7628.3086" gradientTransform="matrix(-0.4445 -0.8958 -0.8958 0.4445 -3843.9065 9753.0088)">
						<stop  offset="0" style="stop-color:#FF928E"/>
						<stop  offset="1" style="stop-color:#FE7062"/>
					</linearGradient>
					<path class="st35" d="M1275.9,2387.8c2.3,4.8,4.5,9.7,6.7,14.7c2.6,5.9,0.1,12.9-5.5,15.5c-5.6,2.7-12.3,0-14.8-5.8
						c-5-11.4-10.4-22.6-16.1-33.4c-3-5.7-1.1-12.8,4.3-16c5.4-3.2,12.2-1.1,15.2,4.5C1269.2,2374,1272.6,2380.9,1275.9,2387.8z
						 M1303.3,2460.5c0.3,0.6,0.5,1.2,0.7,1.9c3.6,12.5,6.7,25.4,9.3,38.2c1.3,6.3-2.6,12.6-8.6,13.9c-6,1.3-12-2.7-13.2-9.1
						c-2.4-12.1-5.4-24.3-8.8-36.3c-1.8-6.2,1.6-12.7,7.5-14.6C1295.4,2452.8,1300.9,2455.5,1303.3,2460.5z M1233.4,2315.7
						c2.3,5,1.1,11.1-3.3,14.6c-4.9,3.9-11.9,2.9-15.6-2.3c-7.1-9.9-14.7-19.6-22.7-28.9c-4.1-4.8-3.8-12.2,0.8-16.6
						c4.6-4.3,11.7-3.9,15.8,0.9c8.3,9.8,16.4,20,23.9,30.4C1232.7,2314.4,1233.1,2315,1233.4,2315.7z M1320.7,2559.5
						c0.6,1.3,1,2.8,1.1,4.4c0.9,13,1.2,26.3,1.1,39.4c-0.1,6.5-5.1,11.6-11.3,11.5c-6.2-0.1-11.1-5.4-11-11.9
						c0.2-12.4-0.2-25-1-37.4c-0.4-6.5,4.2-12.1,10.3-12.5C1314.5,2552.6,1318.7,2555.3,1320.7,2559.5z M1167.5,2242.6
						c1.9,4.1,1.5,9.1-1.5,12.8c-4,4.9-11,5.6-15.7,1.4c-9-8-18.5-15.7-28.1-22.9c-5-3.8-6.2-11.1-2.6-16.4
						c3.6-5.3,10.5-6.5,15.6-2.7c10.2,7.6,20.1,15.7,29.6,24.2C1165.9,2239.9,1166.9,2241.2,1167.5,2242.6z M1088.1,2186.4
						c1.5,3.2,1.6,7.2-0.1,10.7c-2.9,5.7-9.6,7.9-15.1,4.9c-10.5-5.8-21.3-11.1-32.2-16c-5.7-2.5-8.4-9.4-6-15.4
						c2.4-6,8.9-8.8,14.6-6.2c11.5,5.1,22.9,10.7,33.9,16.8C1085.4,2182.4,1087,2184.2,1088.1,2186.4z M998.8,2149.7
						c1.2,2.5,1.5,5.4,0.8,8.3c-1.6,6.3-7.7,10-13.7,8.3c-11.4-3.2-23.1-6-34.8-8.2c-6.1-1.2-10.1-7.3-9-13.6
						c1.1-6.4,6.9-10.6,13-9.4c12.2,2.3,24.5,5.3,36.6,8.7C994.9,2144.5,997.5,2146.8,998.8,2149.7z M904.2,2134.3
						c0.8,1.7,1.2,3.7,1.2,5.7c-0.3,6.5-5.5,11.5-11.6,11.2c-11.8-0.5-23.8-0.6-35.6,0c-6.2,0.3-11.4-4.8-11.6-11.2
						c-0.3-6.5,4.5-11.9,10.7-12.2c12.4-0.5,25-0.5,37.5,0C898.9,2128,902.4,2130.6,904.2,2134.3z M808.6,2141.1c0.5,1,0.8,2,1,3.1
						c1.1,6.4-2.9,12.5-9,13.6c-11.6,2.2-23.3,5-34.7,8.2c-6,1.7-12.1-2-13.7-8.3c-1.6-6.3,1.9-12.7,7.8-14.4
						c12-3.4,24.3-6.3,36.5-8.6C801.6,2133.8,806.5,2136.6,808.6,2141.1z M717,2169.8c0.1,0.2,0.2,0.4,0.3,0.7
						c2.4,6-0.2,12.8-5.9,15.4c-8,3.5-16,7.4-23.8,11.4c-2.8,1.5-5.6,3-8.4,4.5c-5.5,3-12.2,0.8-15.1-5c-3-5.8-0.8-12.8,4.7-15.8
						c2.9-1.6,5.9-3.2,8.8-4.7c8.2-4.3,16.6-8.3,25-12C708.1,2161.8,714.3,2164.3,717,2169.8z"/>
					
						<linearGradient id="SVGID_24_" gradientUnits="userSpaceOnUse" x1="4032.5737" y1="-7758.6577" x2="4071.0312" y2="-7758.6577" gradientTransform="matrix(-0.4445 -0.8958 -0.8958 0.4445 -3843.9065 9753.0088)">
						<stop  offset="0" style="stop-color:#FF928E"/>
						<stop  offset="1" style="stop-color:#FE7062"/>
					</linearGradient>
					<path class="st36" d="M1316.8,2660.3c1,2.1,1.4,4.5,1,7c-0.9,6.3-2,12.7-3.1,18.9c-1.2,6.4-7,10.5-13.1,9.2
						c-6.1-1.3-10-7.4-8.8-13.8c1.1-6,2.1-12,3-18c0.9-6.4,6.6-10.8,12.7-9.8C1312.2,2654.5,1315.2,2656.9,1316.8,2660.3z"/>
				</g>
				<g>
					
						<linearGradient id="SVGID_25_" gradientUnits="userSpaceOnUse" x1="956.7154" y1="1417.134" x2="713.5222" y2="527.1501" gradientTransform="matrix(1 0 0 -1 0 3710)">
						<stop  offset="0" style="stop-color:#FF928E"/>
						<stop  offset="1" style="stop-color:#FE7062"/>
					</linearGradient>
					<path class="st37" d="M1194.1,2706.4c0.9-2.1,0.4-4.6-1.2-6.2l-46.2-45.9c5.7-30.6,6.9-62.3,2.9-94.1l48.8-42.5
						c1.7-1.5,2.3-4,1.5-6.1l-26.9-75c-0.8-2.2-2.8-3.6-5-3.6l-63.5,1.8c-17-26.7-37.8-49.8-61.4-68.8l5.9-66.4c0.2-2.3-1-4.5-3-5.5
						l-69.4-33.1c-2-1-4.4-0.5-5.9,1.2l-43.6,48.4c-29.1-6.1-59.3-7.4-89.6-3.3l-40.6-51.4c-1.4-1.8-3.8-2.5-5.9-1.6l-71.3,28.1
						c-2.1,0.8-3.4,2.9-3.4,5.3l1.8,66.7c-25.4,17.8-47.3,39.6-65.4,64.3l-63.3-6.3c-2.2-0.2-4.3,1.1-5.2,3.2l-31.4,72.9
						c-0.9,2.1-0.4,4.6,1.2,6.2l46.2,45.9c-5.7,30.6-6.9,62.3-2.9,94.1l-48.8,42.5c-1.7,1.5-2.3,4-1.5,6.1l26.9,75
						c0.8,2.2,2.8,3.6,5,3.6l63.5-1.8c17,26.7,37.8,49.8,61.4,68.8l-5.9,66.4c-0.2,2.3,1,4.5,3,5.5l69.4,33.1c2,1,4.4,0.5,5.9-1.2
						l43.6-48.4c29.1,6.1,59.3,7.4,89.6,3.3l40.6,51.4c1.4,1.8,3.8,2.5,5.9,1.6l71.3-28.1c2.1-0.8,3.4-2.9,3.4-5.3l-1.8-66.7
						c25.4-17.8,47.3-39.6,65.4-64.3l63.3,6.3c2.2,0.2,4.3-1.1,5.2-3.2L1194.1,2706.4z"/>
					<path class="st38" d="M942.1,2561.7c16.6,35.2,6.7,78.8-24.8,101.8c-34.7,25.3-82.5,16.1-106.6-20.3
						c-11.7-17.7-16.1-39-12.5-60.2c3.6-21.1,14.8-39.5,31.6-51.8c34.7-25.3,82.5-16.1,106.6,20.3
						C938.6,2554.8,940.5,2558.2,942.1,2561.7z M820.9,2624.6c1.3,2.7,2.8,5.3,4.4,7.9c18.5,28,55.2,34.9,81.8,15.6
						c26.6-19.4,33.2-57.9,14.6-85.8c-18.5-28-55.2-35-81.8-15.6c-12.9,9.4-21.5,23.5-24.3,39.7
						C813.5,2599.5,815.3,2612.8,820.9,2624.6z"/>
					<path class="st38" d="M1040.5,2508.7c2.9,6,5.4,12.3,7.7,18.7l0,0c0.7,2,1.4,4,2.1,6.1c3.3,10,5.8,20.3,7.4,30.7
						c0,0.1,0,0.3,0.1,0.4c0.1,0.4,0.1,0.8,0.2,1.2c0.1,0.8,0.2,1.6,0.3,2.4c0.3,2.1-0.7,4-2.4,4.9c-0.4,0.2-0.9,0.4-1.3,0.4
						c-2.4,0.4-4.7-1.4-5.1-4c-1.9-13.2-5.1-26.3-9.6-38.9c-22.4-62.5-73.3-105.3-131.3-118.2c-32.3-7.2-66.8-5.1-99.9,7.9
						c-5.8,2.3-11.5,4.9-16.9,7.7c-36.9,19.2-66,50.8-83.2,90.7c-19.7,45.8-21.3,97-4.4,144.1c35,97.3,138.7,146.8,231.2,110.3
						c5.7-2.2,11.3-4.8,16.7-7.6c23.5-12.2,44.2-29.7,60.5-51.3c0.4-0.6,0.9-1,1.5-1.3c1.5-0.8,3.4-0.6,4.8,0.5
						c1.9,1.6,2.3,4.6,0.7,6.6c-17.1,22.7-38.8,41.1-63.5,53.9c-5.7,3-11.5,5.6-17.5,8c-97.2,38.3-206.1-13.7-242.7-115.8
						c-17.8-49.5-16.1-103.2,4.6-151.3c18-41.9,48.7-75.1,87.4-95.2c5.7-3,11.7-5.7,17.8-8.1c47.1-18.5,98.2-16.7,144.1,5.2
						C989.5,2435.7,1021.2,2468,1040.5,2508.7z"/>
				</g>
			</g>
			<g>
				<g class="st31">
					
						<linearGradient id="SVGID_26_" gradientUnits="userSpaceOnUse" x1="3460.051" y1="-7733.1167" x2="3479.2839" y2="-7733.1167" gradientTransform="matrix(-0.4445 -0.8958 -0.8958 0.4445 -3843.9065 9753.0088)">
						<stop  offset="0" style="stop-color:#FF928E"/>
						<stop  offset="1" style="stop-color:#FE7062"/>
					</linearGradient>
					<path class="st39" d="M1553.8,3198.4c1.3,2.8,0.8,6.3-1.5,8.5c-4.3,4.2-8.8,8.3-13.3,12.2c-2.9,2.5-7.3,2.1-9.7-1
						c-2.4-3.1-2-7.7,1-10.2c4.3-3.7,8.6-7.6,12.7-11.6c2.8-2.7,7.2-2.5,9.7,0.4C1553.2,3197.2,1553.5,3197.8,1553.8,3198.4z"/>
					
						<linearGradient id="SVGID_27_" gradientUnits="userSpaceOnUse" x1="3451.0896" y1="-7529.8843" x2="3816.1946" y2="-7529.8843" gradientTransform="matrix(-0.4445 -0.8958 -0.8958 0.4445 -3843.9065 9753.0088)">
						<stop  offset="0" style="stop-color:#FF928E"/>
						<stop  offset="1" style="stop-color:#FE7062"/>
					</linearGradient>
					<path class="st40" d="M1511.8,3232.2c1.6,3.3,0.5,7.3-2.5,9.3c-8.5,5.6-17.4,10.9-26.4,15.6c-1.9,1-3.8,2-5.7,2.9
						c-3.5,1.7-7.5-0.1-9.2-3.5c-1.6-3.6-0.1-7.9,3.3-9.6c1.8-0.9,3.7-1.8,5.5-2.8c8.6-4.5,17.1-9.5,25.2-14.8
						c3.2-2.1,7.5-1.1,9.5,2.3C1511.5,3231.8,1511.7,3232,1511.8,3232.2z M1447,3264.2c0.1,0.3,0.3,0.6,0.4,1
						c1.2,3.8-0.8,7.9-4.4,9.1c-11.6,4-23.6,7.3-35.5,9.7c-3.7,0.8-7.4-1.8-8.1-5.7c-0.7-3.9,1.7-7.7,5.4-8.5
						c11.4-2.3,22.8-5.5,33.9-9.3C1441.9,3259.4,1445.5,3261,1447,3264.2z M1376.7,3278.6c0.4,0.8,0.6,1.7,0.7,2.7
						c0.3,4-2.6,7.4-6.4,7.7c-12.2,0.9-24.5,1-36.7,0.3c-3.8-0.2-6.7-3.6-6.5-7.6c0.2-4,3.4-7.1,7.2-6.8c11.6,0.7,23.4,0.6,35-0.3
						C1372.9,3274.4,1375.5,3276.1,1376.7,3278.6z M1305.2,3274.5c0.6,1.3,0.9,2.9,0.6,4.5c-0.7,3.9-4.3,6.6-8,5.8
						c-12-2.3-24-5.4-35.7-9.2c-3.6-1.2-5.7-5.3-4.6-9.1c1.1-3.8,5-6,8.6-4.8c11.1,3.6,22.6,6.6,34,8.8
						C1302.5,3271,1304.2,3272.5,1305.2,3274.5z M1236.8,3252.1c0.9,1.9,1,4.1,0.1,6.2c-1.6,3.6-5.6,5.3-9.1,3.6
						c-11.1-5.3-22.1-11.3-32.5-18c-3.3-2.1-4.3-6.5-2.3-10s6.2-4.5,9.5-2.4c10,6.4,20.4,12.1,31,17.2
						C1234.9,3249.4,1236.1,3250.7,1236.8,3252.1z M1175.5,3213c1.2,2.4,0.9,5.4-0.8,7.7c-2.4,3.1-6.7,3.7-9.7,1.2
						c-9.6-8-18.8-16.6-27.4-25.8c-2.7-2.9-2.6-7.4,0.1-10.2s7.1-2.8,9.8,0.1c8.2,8.7,16.9,17,26.1,24.6
						C1174.4,3211.2,1175.1,3212.1,1175.5,3213z M1125.2,3159.4c1.4,3,0.7,6.8-2,9c-3,2.4-7.4,1.8-9.7-1.4
						c-7.4-10.2-14.3-20.9-20.5-32c-1.9-3.5-0.8-7.9,2.5-9.9c3.3-2,7.5-0.9,9.4,2.6c5.9,10.6,12.5,20.9,19.6,30.6
						C1124.8,3158.6,1125,3159,1125.2,3159.4z M1076.7,3059c0.2,0.4,0.3,0.8,0.4,1.2c2.8,10.1,6.3,20.3,10.2,30.2
						c0.6,1.5,1.2,3,1.8,4.4c1.5,3.7-0.1,7.9-3.6,9.5c-3.5,1.6-7.7-0.1-9.1-3.8c-0.6-1.6-1.3-3.1-1.9-4.7
						c-4.1-10.3-7.7-21-10.6-31.6c-1.1-3.8,1-7.9,4.7-9C1071.9,3054.2,1075.3,3055.9,1076.7,3059z"/>
				</g>
				<g class="st31">
					
						<linearGradient id="SVGID_28_" gradientUnits="userSpaceOnUse" x1="3621.5251" y1="-7879.4922" x2="4042.0076" y2="-7879.4922" gradientTransform="matrix(-0.4445 -0.8958 -0.8958 0.4445 -3843.9065 9753.0088)">
						<stop  offset="0" style="stop-color:#FF928E"/>
						<stop  offset="1" style="stop-color:#FE7062"/>
					</linearGradient>
					<path class="st41" d="M1614.7,2834.2c1.7,3.5,0.3,7.9-3,9.7c-3.4,1.8-7.5,0.4-9.3-3.2c-5.2-10.7-11.2-21.2-17.6-31.2
						c-2.1-3.3-1.3-7.8,1.8-10.1c3.2-2.2,7.4-1.4,9.6,2C1603,2811.9,1609.2,2822.9,1614.7,2834.2
						C1614.7,2834.1,1614.7,2834.2,1614.7,2834.2z M1628.9,2868.2c0.1,0.2,0.2,0.5,0.3,0.7c4.2,11.8,7.7,24.1,10.5,36.3
						c0.9,3.9-1.4,7.8-5.1,8.7c-3.7,0.9-7.4-1.5-8.3-5.4c-2.7-11.7-6-23.4-10-34.7c-1.3-3.8,0.5-7.9,4.1-9.3
						C1623.7,2863.3,1627.4,2864.9,1628.9,2868.2z M1575.2,2772.9c1.4,2.9,0.8,6.5-1.6,8.7c-2.9,2.6-7.2,2.3-9.7-0.7
						c-7.6-9.1-15.7-17.8-24.2-25.8c-2.8-2.7-3.1-7.3-0.5-10.2c2.5-3,6.9-3.2,9.7-0.5c8.9,8.4,17.5,17.5,25.4,27.1
						C1574.6,2771.8,1574.9,2772.4,1575.2,2772.9z M1645.3,2940.2c0.3,0.7,0.6,1.6,0.7,2.4c1.3,12.5,2,25.3,1.8,37.9
						c0,4-3.2,7.2-7,7.2c-3.8-0.1-6.9-3.3-6.8-7.3c0.1-12-0.5-24.2-1.8-36.1c-0.4-4,2.3-7.6,6.1-8
						C1641.3,2935.9,1644,2937.6,1645.3,2940.2z M1522.7,2723.4c1.1,2.3,1,5.1-0.5,7.4c-2.2,3.3-6.5,4.1-9.6,1.8
						c-9.4-6.9-19.3-13.3-29.4-18.9c-3.4-1.9-4.6-6.3-2.9-9.8c1.8-3.5,6-4.9,9.3-3c10.6,5.9,21,12.6,30.8,19.9
						C1521.5,2721.4,1522.2,2722.4,1522.7,2723.4z M1460.5,2688.6c0.8,1.8,1,3.9,0.3,5.8c-1.4,3.7-5.4,5.6-8.9,4.1
						c-10.7-4.4-21.8-8.1-32.8-11c-3.7-1-5.9-4.9-5-8.8c0.9-3.9,4.7-6.2,8.4-5.2c11.6,3.1,23.2,7,34.4,11.6
						C1458.5,2685.7,1459.8,2687,1460.5,2688.6z M1392.2,2670.3c0.6,1.2,0.8,2.7,0.7,4.1c-0.5,4-3.9,6.8-7.7,6.3
						c-11.4-1.5-23-2.4-34.4-2.4c-3.8,0-6.9-3.3-6.9-7.3c0-4,3.1-7.2,6.9-7.2c12,0.1,24.1,0.9,36.1,2.5
						C1389.2,2666.7,1391.2,2668.2,1392.2,2670.3z"/>
					
						<linearGradient id="SVGID_29_" gradientUnits="userSpaceOnUse" x1="3574.4861" y1="-7899.3013" x2="3603.6099" y2="-7899.3013" gradientTransform="matrix(-0.4445 -0.8958 -0.8958 0.4445 -3843.9065 9753.0088)">
						<stop  offset="0" style="stop-color:#FF928E"/>
						<stop  offset="1" style="stop-color:#FE7062"/>
					</linearGradient>
					<path class="st42" d="M1644.5,3014.6c0.6,1.3,0.8,2.7,0.7,4.2c-0.8,6.1-1.7,12.3-2.8,18.3c-0.7,3.9-4.3,6.5-8.1,5.7
						c-3.7-0.8-6.2-4.6-5.5-8.5c1.1-5.7,2-11.6,2.7-17.4c0.5-4,4-6.7,7.8-6.2C1641.6,3010.9,1643.5,3012.5,1644.5,3014.6z"/>
				</g>
				<g>
					
						<linearGradient id="SVGID_30_" gradientUnits="userSpaceOnUse" x1="1452.1573" y1="1083.5773" x2="1208.9645" y2="266.0363" gradientTransform="matrix(1 0 0 -1 0 3710)">
						<stop  offset="0" style="stop-color:#FF928E"/>
						<stop  offset="1" style="stop-color:#FE7062"/>
					</linearGradient>
					<path class="st43" d="M1562.2,3050.7c0.6-1.4,0.3-3.1-0.8-4.2l-30.9-30.7c3.8-20.4,4.6-41.7,1.9-63l32.7-28.4
						c1.1-1,1.6-2.6,1-4.1l-18-50.2c-0.5-1.5-1.9-2.4-3.4-2.4l-42.5,1.2c-11.4-17.8-25.3-33.3-41.1-46l3.9-44.4c0.1-1.6-0.7-3-2-3.7
						l-46.5-22.2c-1.4-0.6-3-0.3-4,0.8l-29.2,32.4c-19.5-4.1-39.7-4.9-60-2.2l-27.1-34.4c-1-1.2-2.5-1.6-3.9-1.1l-47.7,18.8
						c-1.4,0.5-2.3,2-2.3,3.5l1.2,44.6c-17,11.9-31.7,26.5-43.7,43l-42.3-4.2c-1.5-0.1-2.9,0.7-3.5,2.1l-21,48.8
						c-0.6,1.4-0.3,3.1,0.8,4.2l30.9,30.7c-3.8,20.4-4.6,41.7-1.9,63l-32.7,28.4c-1.1,1-1.6,2.6-1,4.1l18,50.2
						c0.5,1.5,1.9,2.4,3.4,2.4l42.5-1.2c11.4,17.8,25.3,33.3,41.1,46l-3.9,44.4c-0.1,1.6,0.7,3,2,3.7l46.5,22.2c1.4,0.6,3,0.3,4-0.8
						l29.2-32.4c19.5,4.1,39.7,4.9,60,2.2l27.1,34.4c1,1.2,2.5,1.6,3.9,1.1l47.7-18.8c1.4-0.6,2.3-2,2.3-3.5l-1.2-44.6
						c17-11.9,31.7-26.5,43.7-43l42.3,4.2c1.5,0.1,2.9-0.7,3.5-2.1L1562.2,3050.7z"/>
					<path class="st38" d="M1394.4,2953.5c5,10.5,6.6,22.3,4.6,34c-2.5,14.4-10.1,26.9-21.6,35.3c-23.6,17.2-56.2,11-72.6-13.8
						c-16.4-24.9-10.6-59.1,13-76.3c11.4-8.3,25.3-11.5,39-8.9c13.7,2.6,25.7,10.7,33.6,22.7
						C1392,2948.7,1393.3,2951.1,1394.4,2953.5z M1313.3,2995.5c0.8,1.7,1.8,3.4,2.9,5.1c12.1,18.3,36.1,22.8,53.4,10.2
						c8.4-6.1,14-15.3,15.8-25.9c1.8-10.6-0.4-21.3-6.3-30.2l0,0c-5.9-8.9-14.6-14.8-24.7-16.7c-10.1-1.9-20.3,0.4-28.7,6.5
						C1309.9,2956.1,1305,2977.9,1313.3,2995.5z"/>
					<path class="st38" d="M1462.9,2916.7c1.9,4.1,3.7,8.4,5.3,12.7c3.1,8.7,5.4,17.7,6.8,26.9c0.1,0.4,0.1,0.8,0.2,1.2
						c0.5,3.2-1.1,6.2-3.7,7.5c-0.6,0.3-1.3,0.6-2.1,0.7c-3.8,0.6-7.3-2.2-7.8-6.1c-1.2-8.6-3.3-17-6.2-25.1l0,0
						c-0.2-0.4-0.3-0.9-0.5-1.3c-7.1-19.2-18.4-35.8-33-48.7c-7.9-7-16.8-13-26.4-17.7c-0.1,0-0.2-0.1-0.2-0.1
						c-0.2-0.1-0.5-0.2-0.7-0.3c-28.3-13.5-59.8-14.6-88.9-3.2c-3.8,1.5-7.4,3.1-11,5c-23.9,12.4-42.7,32.9-53.9,58.7
						c-12.8,29.7-13.8,62.8-2.8,93.3c11,30.5,32.6,54.7,60.8,68.2c28.3,13.5,59.8,14.6,88.9,3.2c3.7-1.5,7.3-3.1,10.8-4.9
						c15.2-7.9,28.6-19.3,39.2-33.2c0.7-0.9,1.4-1.5,2.3-2c2.3-1.2,5.2-1,7.4,0.8c3,2.5,3.5,7,1.1,10.2
						c-11.8,15.6-26.8,28.3-43.8,37.2c-3.9,2-8,3.9-12.1,5.5c-32.5,12.8-67.8,11.5-99.4-3.6c-31.6-15.1-55.8-42.2-68-76.3
						c-12.3-34.1-11.1-71.2,3.2-104.4c12.4-28.9,33.6-51.8,60.3-65.7c4-2.1,8.1-3.9,12.3-5.6
						C1363.6,2824.7,1433.6,2854.7,1462.9,2916.7z"/>
				</g>
			</g>
		</g>
	</g>
</g>
</svg>
