<svg width="102" height="54" viewBox="0 0 102 54" fill="none" xmlns="http://www.w3.org/2000/svg">
<path d="M55.1 23.8C54.4333 24.2533 53.5933 24.6067 52.58 24.86C51.58 25.1133 50.5133 25.24 49.38 25.24C47.9667 25.24 46.7667 25.0667 45.78 24.72C44.7933 24.36 44.0467 23.8667 43.54 23.24C43.0333 22.6 42.78 21.8733 42.78 21.06C42.78 20.3133 42.9867 19.6533 43.4 19.08C43.8133 18.5067 44.38 18.08 45.1 17.8C44.5533 17.5067 44.1267 17.1067 43.82 16.6C43.5267 16.0933 43.38 15.5267 43.38 14.9C43.38 14.14 43.6133 13.4467 44.08 12.82C44.5467 12.1933 45.2533 11.6933 46.2 11.32C47.1467 10.9467 48.3067 10.76 49.68 10.76C50.5867 10.76 51.4733 10.8533 52.34 11.04C53.2067 11.2133 53.96 11.4533 54.6 11.76L53.7 14.24C52.4733 13.6667 51.1733 13.38 49.8 13.38C48.76 13.38 47.9733 13.54 47.44 13.86C46.92 14.1667 46.66 14.5867 46.66 15.12C46.66 15.6133 46.8333 15.9933 47.18 16.26C47.54 16.5133 48.08 16.64 48.8 16.64H52.62V19.2H48.6C47.7867 19.2 47.16 19.34 46.72 19.62C46.28 19.9 46.06 20.3067 46.06 20.84C46.06 21.4 46.34 21.84 46.9 22.16C47.4733 22.4667 48.3467 22.62 49.52 22.62C50.3467 22.62 51.1733 22.5133 52 22.3C52.8267 22.0733 53.5267 21.76 54.1 21.36L55.1 23.8ZM67.5631 14.24V25H64.5831V23.76C63.8098 24.6933 62.6898 25.16 61.2231 25.16C60.2098 25.16 59.2898 24.9333 58.4631 24.48C57.6498 24.0267 57.0098 23.38 56.5431 22.54C56.0765 21.7 55.8431 20.7267 55.8431 19.62C55.8431 18.5133 56.0765 17.54 56.5431 16.7C57.0098 15.86 57.6498 15.2133 58.4631 14.76C59.2898 14.3067 60.2098 14.08 61.2231 14.08C62.5965 14.08 63.6698 14.5133 64.4431 15.38V14.24H67.5631ZM61.7631 22.6C62.5498 22.6 63.2031 22.3333 63.7231 21.8C64.2431 21.2533 64.5031 20.5267 64.5031 19.62C64.5031 18.7133 64.2431 17.9933 63.7231 17.46C63.2031 16.9133 62.5498 16.64 61.7631 16.64C60.9631 16.64 60.3031 16.9133 59.7831 17.46C59.2631 17.9933 59.0031 18.7133 59.0031 19.62C59.0031 20.5267 59.2631 21.2533 59.7831 21.8C60.3031 22.3333 60.9631 22.6 61.7631 22.6ZM74.0717 25.16C73.1784 25.16 72.3051 25.0533 71.4517 24.84C70.5984 24.6133 69.9184 24.3333 69.4117 24L70.4517 21.76C70.9317 22.0667 71.5117 22.32 72.1917 22.52C72.8717 22.7067 73.5384 22.8 74.1917 22.8C75.5117 22.8 76.1717 22.4733 76.1717 21.82C76.1717 21.5133 75.9917 21.2933 75.6317 21.16C75.2717 21.0267 74.7184 20.9133 73.9717 20.82C73.0917 20.6867 72.3651 20.5333 71.7917 20.36C71.2184 20.1867 70.7184 19.88 70.2917 19.44C69.8784 19 69.6717 18.3733 69.6717 17.56C69.6717 16.88 69.8651 16.28 70.2517 15.76C70.6517 15.2267 71.2251 14.8133 71.9717 14.52C72.7317 14.2267 73.6251 14.08 74.6517 14.08C75.4117 14.08 76.1651 14.1667 76.9117 14.34C77.6717 14.5 78.2984 14.7267 78.7917 15.02L77.7517 17.24C76.8051 16.7067 75.7717 16.44 74.6517 16.44C73.9851 16.44 73.4851 16.5333 73.1517 16.72C72.8184 16.9067 72.6517 17.1467 72.6517 17.44C72.6517 17.7733 72.8317 18.0067 73.1917 18.14C73.5517 18.2733 74.1251 18.4 74.9117 18.52C75.7917 18.6667 76.5117 18.8267 77.0717 19C77.6317 19.16 78.1184 19.46 78.5317 19.9C78.9451 20.34 79.1517 20.9533 79.1517 21.74C79.1517 22.4067 78.9517 23 78.5517 23.52C78.1517 24.04 77.5651 24.4467 76.7917 24.74C76.0317 25.02 75.1251 25.16 74.0717 25.16ZM91.9167 14.24V23.2C91.9167 25.1733 91.4167 26.64 90.4167 27.6C89.4167 28.56 87.9634 29.04 86.0567 29.04C85.0434 29.04 84.0834 28.9133 83.1767 28.66C82.2834 28.4067 81.5301 28.04 80.9167 27.56L82.1567 25.32C82.6101 25.6933 83.1634 25.9867 83.8167 26.2C84.4701 26.4133 85.1301 26.52 85.7967 26.52C86.8367 26.52 87.5967 26.28 88.0767 25.8C88.5567 25.32 88.7967 24.5867 88.7967 23.6V23.24C88.3967 23.64 87.9234 23.9467 87.3767 24.16C86.8301 24.3733 86.2434 24.48 85.6167 24.48C84.2034 24.48 83.0834 24.08 82.2567 23.28C81.4301 22.4667 81.0167 21.2533 81.0167 19.64V14.24H84.1367V19.18C84.1367 20.9267 84.8634 21.8 86.3167 21.8C87.0634 21.8 87.6634 21.56 88.1167 21.08C88.5701 20.5867 88.7967 19.86 88.7967 18.9V14.24H91.9167ZM55.1 47.8C54.4333 48.2533 53.5933 48.6067 52.58 48.86C51.58 49.1133 50.5133 49.24 49.38 49.24C47.9667 49.24 46.7667 49.0667 45.78 48.72C44.7933 48.36 44.0467 47.8667 43.54 47.24C43.0333 46.6 42.78 45.8733 42.78 45.06C42.78 44.3133 42.9867 43.6533 43.4 43.08C43.8133 42.5067 44.38 42.08 45.1 41.8C44.5533 41.5067 44.1267 41.1067 43.82 40.6C43.5267 40.0933 43.38 39.5267 43.38 38.9C43.38 38.14 43.6133 37.4467 44.08 36.82C44.5467 36.1933 45.2533 35.6933 46.2 35.32C47.1467 34.9467 48.3067 34.76 49.68 34.76C50.5867 34.76 51.4733 34.8533 52.34 35.04C53.2067 35.2133 53.96 35.4533 54.6 35.76L53.7 38.24C52.4733 37.6667 51.1733 37.38 49.8 37.38C48.76 37.38 47.9733 37.54 47.44 37.86C46.92 38.1667 46.66 38.5867 46.66 39.12C46.66 39.6133 46.8333 39.9933 47.18 40.26C47.54 40.5133 48.08 40.64 48.8 40.64H52.62V43.2H48.6C47.7867 43.2 47.16 43.34 46.72 43.62C46.28 43.9 46.06 44.3067 46.06 44.84C46.06 45.4 46.34 45.84 46.9 46.16C47.4733 46.4667 48.3467 46.62 49.52 46.62C50.3467 46.62 51.1733 46.5133 52 46.3C52.8267 46.0733 53.5267 45.76 54.1 45.36L55.1 47.8ZM67.2255 38.24L62.6855 49H59.4655L54.9455 38.24H58.1655L61.1455 45.56L64.2255 38.24H67.2255ZM73.6256 46.66C74.1856 46.66 74.679 46.58 75.1056 46.42C75.5456 46.2467 75.9523 45.98 76.3256 45.62L77.9856 47.42C76.9723 48.58 75.4923 49.16 73.5456 49.16C72.3323 49.16 71.259 48.9267 70.3256 48.46C69.3923 47.98 68.6723 47.32 68.1656 46.48C67.659 45.64 67.4056 44.6867 67.4056 43.62C67.4056 42.5667 67.6523 41.62 68.1456 40.78C68.6523 39.9267 69.339 39.2667 70.2056 38.8C71.0856 38.32 72.0723 38.08 73.1656 38.08C74.1923 38.08 75.1256 38.3 75.9656 38.74C76.8056 39.1667 77.4723 39.7933 77.9656 40.62C78.4723 41.4333 78.7256 42.4 78.7256 43.52L70.7656 45.06C70.9923 45.5933 71.3456 45.9933 71.8256 46.26C72.319 46.5267 72.919 46.66 73.6256 46.66ZM73.1656 40.44C72.379 40.44 71.739 40.6933 71.2456 41.2C70.7523 41.7067 70.4923 42.4067 70.4656 43.3L75.7056 42.28C75.559 41.72 75.259 41.2733 74.8056 40.94C74.3523 40.6067 73.8056 40.44 73.1656 40.44ZM87.3628 38.08C88.6961 38.08 89.7695 38.48 90.5828 39.28C91.4095 40.08 91.8228 41.2667 91.8228 42.84V49H88.7028V43.32C88.7028 42.4667 88.5161 41.8333 88.1428 41.42C87.7695 40.9933 87.2295 40.78 86.5228 40.78C85.7361 40.78 85.1095 41.0267 84.6428 41.52C84.1761 42 83.9428 42.72 83.9428 43.68V49H80.8228V38.24H83.8028V39.5C84.2161 39.0467 84.7295 38.7 85.3428 38.46C85.9561 38.2067 86.6295 38.08 87.3628 38.08ZM101.131 48.48C100.824 48.7067 100.444 48.88 99.9909 49C99.5509 49.1067 99.0909 49.16 98.6109 49.16C97.3176 49.16 96.3243 48.8333 95.6309 48.18C94.9376 47.5267 94.5909 46.5667 94.5909 45.3V35.86H97.7109V38.48H100.371V40.88H97.7109V45.26C97.7109 45.7133 97.8243 46.0667 98.0509 46.32C98.2776 46.56 98.6043 46.68 99.0309 46.68C99.5109 46.68 99.9376 46.5467 100.311 46.28L101.131 48.48Z" fill="#4B7EFF"/>
<path d="M18.25 36.9667L24.715 30.5033C24.8772 30.3411 25.0717 30.2544 25.2983 30.2433C25.525 30.2322 25.73 30.3189 25.9133 30.5033C26.0967 30.6878 26.1889 30.8878 26.19 31.1033C26.1911 31.3189 26.0989 31.5189 25.9133 31.7033L19.1917 38.4233C18.9228 38.6922 18.6089 38.8267 18.25 38.8267C17.8911 38.8267 17.5772 38.6922 17.3083 38.4233L14.0867 35.2C13.9244 35.0378 13.8378 34.8433 13.8267 34.6167C13.8156 34.39 13.9022 34.185 14.0867 34.0017C14.2711 33.8183 14.4711 33.7267 14.6867 33.7267C14.9022 33.7267 15.1022 33.8183 15.2867 34.0017L18.25 36.9667ZM9.36001 45C8.59223 45 7.95167 44.7433 7.43834 44.23C6.925 43.7167 6.66778 43.0761 6.66667 42.3083V21.025C6.66667 20.2583 6.92389 19.6183 7.43834 19.105C7.95278 18.5917 8.59334 18.3344 9.36001 18.3333H12.3083V15.5133C12.3083 15.2544 12.3933 15.04 12.5633 14.87C12.7333 14.7 12.9472 14.615 13.205 14.615C13.4628 14.615 13.6772 14.7 13.8483 14.87C14.0194 15.04 14.1044 15.2544 14.1033 15.5133V18.3333H26.0267V15.45C26.0267 15.2122 26.1061 15.0133 26.265 14.8533C26.4239 14.6933 26.6222 14.6139 26.86 14.615C27.0978 14.6161 27.2956 14.6956 27.4533 14.8533C27.6111 15.0111 27.6911 15.2094 27.6933 15.4483V18.3333H30.6417C31.4083 18.3333 32.0489 18.5906 32.5633 19.105C33.0778 19.6194 33.3344 20.26 33.3333 21.0267V42.3083C33.3333 43.075 33.0767 43.7156 32.5633 44.23C32.05 44.7444 31.4089 45.0011 30.64 45H9.36001ZM9.36001 43.3333H30.6417C30.8972 43.3333 31.1322 43.2267 31.3467 43.0133C31.5611 42.8 31.6678 42.5644 31.6667 42.3067V27.6933H8.33334V42.3083C8.33334 42.5639 8.44 42.7989 8.65334 43.0133C8.86667 43.2278 9.10167 43.3344 9.35834 43.3333" fill="#4B7EFF"/>
</svg>
