<svg width="648" height="712" viewBox="0 0 648 712" fill="none" xmlns="http://www.w3.org/2000/svg">
<path d="M274.463 0.0632378C186.731 1.73822 50.991 37.7934 11.9201 130.449C-1.72591 162.81 -0.801815 210.385 1.04544 305.534C1.58866 333.5 2.489 374.262 8.81301 424.839C21.9499 529.902 30.8928 601.426 64.7394 643.073C149.548 747.428 455.898 744.412 586.719 556.54C658.082 454.054 669.061 308.265 603.807 187.778C531.965 55.1232 391.917 -2.17931 274.463 0.0632378Z" fill="#F4F7FA"/>
<path d="M328.318 52.6905L264.553 625.554C263.597 634.143 269.074 641.843 276.747 642.665L542.335 674.181C558.605 675.275 567.513 666.29 568.517 657.157L635.463 48.108C636.461 39.0254 628.479 30.8 612.14 30.8L344.135 36.9011C336.377 37.0415 329.269 44.1462 328.318 52.6905Z" fill="url(#paint0_linear_27_866)"/>
<path d="M316.365 51.7047L252.25 627.433C251.288 636.066 256.784 643.805 264.485 644.634L539.826 674.264C548.458 675.193 556.369 668.443 557.379 659.262L624.7 47.066C625.704 37.9367 619.364 30.5985 610.637 30.7574L332.244 35.8345C324.457 35.9766 317.321 43.1177 316.365 51.7047Z" fill="url(#paint1_linear_27_866)"/>
<path d="M321.59 83.461L262.163 617.275C261.265 625.34 266.412 632.558 273.62 633.315L532.569 660.523C540.594 661.366 547.948 655.065 548.888 646.52L611.103 80.9924C612.038 72.4914 606.152 65.6127 598.046 65.7063L336.439 68.7175C329.157 68.8012 322.483 75.4352 321.59 83.461Z" fill="url(#paint2_linear_27_866)"/>
<path d="M460.452 51.309C460.112 54.3739 462.147 56.8273 465 56.7884C467.856 56.7497 470.448 54.2282 470.788 51.1572C471.128 48.0862 469.086 45.6331 466.229 45.6784C463.376 45.7236 460.791 48.2443 460.452 51.309Z" fill="url(#paint3_linear_27_866)"/>
<path d="M366.359 441.791C419.372 335.852 498.564 304.142 522.408 194.96C535.296 135.943 526.515 79.4554 511.725 32.5616L610.637 30.7577C619.364 30.5987 625.704 37.9369 624.7 47.0663L557.379 659.263C556.369 668.443 548.459 675.193 539.826 674.264L323.381 650.972C321.78 556.046 342.729 489.014 366.359 441.791Z" fill="white"/>
<path d="M561.638 117.813L562.933 125.363H562.932L536.292 125.431L305.124 126.023C299.178 126.039 293.707 131.352 292.893 137.891L237.709 536.531C236.888 543.129 246.39 553.2 252.302 553.693L354.859 562.212V562.078L508.268 574.8C508.271 574.8 508.273 574.8 508.276 574.8L508.648 574.967C515.199 575.513 521.207 570.376 522.058 563.407C522.058 563.404 522.059 563.436 522.059 563.433L573.738 137.818C574.576 130.911 568.226 117.794 561.638 117.813Z" fill="url(#paint4_linear_27_866)"/>
<path d="M516.828 555.111C515.982 562.082 509.974 567.293 503.424 566.749L246.816 545.452C240.907 544.961 236.794 539.215 237.616 532.616L287.781 129.739C288.595 123.2 294.063 117.886 300.006 117.869L558.062 117.102C564.648 117.082 569.319 122.663 568.481 129.567L516.828 555.111Z" fill="white"/>
<path opacity="0.4" d="M568.481 129.567L516.829 555.111C515.983 562.08 509.592 567.261 503.045 566.718L348.923 553.926C341.601 545.825 335.572 536.1 331.27 524.434C329.157 518.712 327.61 512.538 326.583 506.047C323.722 488.079 324.83 467.654 329.003 447.603C332.212 432.17 337.241 416.932 343.683 403.184C348.832 392.193 354.891 382.142 361.655 373.697C366.526 367.618 371.794 361.712 377.351 355.919C384.051 348.93 391.172 342.105 398.517 335.345C415.634 319.583 433.963 304.17 450.933 287.894C490.09 250.349 521.856 208.398 514.213 148.539C513.969 146.655 511.582 132.216 508.534 117.249L557.681 117.103C564.263 117.083 569.319 122.665 568.481 129.567Z" fill="white"/>
<path d="M475.065 683.023C475.135 683.035 475.204 683.047 475.274 683.059C486.627 685.018 500.856 683.649 510.051 675.482C514.895 671.179 518.177 665.503 519.185 658.782C519.782 654.795 520.107 650.588 519.53 646.578C518.926 642.379 517.424 638.322 515.49 634.64C514.409 632.584 513.178 630.598 511.871 628.702C508.126 623.272 499.279 615.643 503.381 607.944C505.861 603.29 511.577 600.424 515.353 597.161C523.423 590.185 529.219 580.128 529.301 568.643C529.365 559.621 524.132 550.69 518.227 544.624C494.199 519.939 511.901 477.486 477.869 480.82C443.838 484.154 436.455 520.863 449.201 555.137C453.468 566.611 458.661 578.341 461.56 590.333C463.842 599.774 460.617 606.302 453.504 611.881C449.677 614.882 444.084 616.928 440.76 620.465C433.334 628.364 427.385 639.436 429.158 651.024C430.916 662.518 439.981 670.962 449.535 675.329C457.796 679.105 466.229 681.493 475.065 683.023Z" fill="url(#paint5_linear_27_866)"/>
<g opacity="0.8">
<path d="M479.072 673.16C479.152 673.16 479.233 673.145 479.312 673.114C479.675 672.971 479.861 672.536 479.729 672.145C479.585 671.719 465.484 629.165 477.83 595.061C490.378 560.4 476.342 523.294 476.199 522.923C476.05 522.538 475.641 522.357 475.284 522.517C474.927 522.678 474.759 523.121 474.908 523.506C475.048 523.871 488.865 560.429 476.527 594.51C463.986 629.153 478.269 672.232 478.415 672.663C478.519 672.97 478.786 673.16 479.072 673.16Z" fill="white"/>
</g>
<path d="M467.889 619.103C470.738 614.229 473.998 609.644 477.401 605.497C488.899 591.484 496.971 576.607 502.136 558.659C506.204 544.521 506.116 528.356 508.641 513.758C510.47 503.18 513.784 492.943 517.227 482.871C524.558 461.427 535.563 436.548 554.035 423.67C562.587 417.708 575.268 417.119 584.701 421.391C596.92 426.924 607.724 437.705 608.508 452.696C609.586 473.311 592.927 496.419 606.704 515.376C627.8 544.402 617.939 576.65 588.936 592.433C579.485 597.577 568.409 602.345 560.512 610.244C552.591 618.168 557.313 631.686 558.193 641.722C559.018 651.14 559.929 662.082 554.376 670.134C545.008 683.719 522.387 689.639 507.683 690.981C493.454 692.28 477.287 690.582 467.322 678.269C452.305 659.715 457.207 637.378 467.889 619.103Z" fill="url(#paint6_linear_27_866)"/>
<g opacity="0.8">
<path d="M491.044 678.2C491.327 678.2 491.593 678.014 491.698 677.712C492.16 676.392 538.168 545.157 564.42 492.272C564.603 491.904 564.475 491.445 564.135 491.248C563.794 491.051 563.37 491.189 563.188 491.557C536.892 544.53 490.852 675.856 490.39 677.177C490.253 677.567 490.436 678.004 490.797 678.151C490.878 678.185 490.962 678.2 491.044 678.2Z" fill="white"/>
</g>
<path d="M510.93 696.763C507.868 696.294 504.816 695.751 501.776 695.224C493.282 693.751 482.759 690.891 480.087 680.645C479.326 677.727 480.636 672.518 480.952 669.485C481.273 666.396 481.68 663.308 482.345 660.281C483.264 656.098 484.736 652.165 486.645 648.401C489.954 641.879 493.735 636.971 500.776 635.493C505.91 634.416 511.597 634.166 516.815 634.35C545.259 635.358 548.757 624.27 564.378 600.581C579.999 576.893 682.82 615.198 620.801 657.283C620.801 657.283 611.475 663.835 577.435 659.551C571.209 658.768 563.334 658.247 558.056 662.599C548.746 670.276 558.107 686.546 548.707 692.93C543.225 696.652 534.416 697.747 528.119 698.008C522.366 698.247 516.631 697.635 510.93 696.763Z" fill="url(#paint7_linear_27_866)"/>
<g opacity="0.8">
<path d="M491.945 684.08C492.161 684.08 492.375 683.972 492.512 683.768C492.691 683.501 510.697 657.042 536.244 650.796C546.236 648.353 554.873 642.886 563.226 637.599C577.31 628.685 590.613 620.264 610.247 624.591C610.627 624.675 610.995 624.41 611.072 624.001C611.149 623.592 610.905 623.193 610.527 623.109C590.368 618.666 576.21 627.628 562.519 636.295C554.258 641.523 545.716 646.93 535.935 649.322C509.866 655.695 491.561 682.609 491.379 682.88C491.153 683.218 491.222 683.691 491.535 683.936C491.659 684.033 491.802 684.08 491.945 684.08Z" fill="white"/>
</g>
<path d="M205.204 121.744C205.204 167.232 171.292 206.558 129.331 209.59C87.2263 212.632 52.9883 178.002 52.9883 132.232C52.9883 86.4627 87.2263 47.1143 129.331 44.354C171.292 41.6029 205.204 76.2554 205.204 121.744Z" fill="url(#paint8_linear_27_866)"/>
<path d="M214.211 124.658C214.211 170.146 180.299 209.472 138.338 212.504C96.2336 215.546 61.9956 180.916 61.9956 135.146C61.9956 89.3765 96.2336 50.0283 138.338 47.2681C180.299 44.5172 214.211 79.1695 214.211 124.658Z" fill="url(#paint9_linear_27_866)"/>
<path d="M135.657 174.593C132.357 174.826 129.287 173.167 127.578 170.202L98.888 120.405C96.1992 115.739 97.6479 109.347 102.122 106.13C106.593 102.915 112.395 104.089 115.08 108.754L134.977 143.32L161.231 85.5266C163.587 80.3399 169.248 77.9606 173.872 80.2103C178.494 82.4592 180.334 88.4832 177.981 93.6665L144.053 168.413C142.5 171.836 139.411 174.191 135.989 174.563C135.878 174.575 135.768 174.585 135.657 174.593Z" fill="white"/>
<path d="M509.205 198.588C511.305 198.625 513.364 196.9 513.613 194.735L519.772 141.291C520.023 139.115 518.514 137.351 516.403 137.351H474.904C472.846 137.351 470.984 139.09 470.742 141.235C470.499 143.38 471.813 145.122 473.87 145.127L511.379 145.212L505.705 194.61C505.457 196.771 507.107 198.551 509.205 198.588Z" fill="url(#paint10_linear_27_866)"/>
<path d="M450.409 353.79L491.203 356.378C493.277 356.509 495.16 354.886 495.406 352.752L501.476 300.074C501.723 297.929 500.08 296.114 497.996 296.019C495.914 295.923 493.877 297.582 493.631 299.722L488.036 348.431L451.12 346.162C449.096 346.039 447.34 347.644 447.103 349.749C446.865 351.853 448.386 353.662 450.409 353.79Z" fill="url(#paint11_linear_27_866)"/>
<path d="M320.88 195.266C322.759 195.299 324.296 193.667 324.514 191.619L329.506 144.801L364.223 144.879C366.152 144.883 367.982 143.2 368.208 141.119C368.434 139.038 367.132 137.351 365.201 137.351H327.212C325.327 137.351 323.624 139.015 323.406 141.068L318.043 191.506C317.825 193.549 319.004 195.233 320.88 195.266Z" fill="url(#paint12_linear_27_866)"/>
<path d="M305.146 344.577L342.523 346.948C344.422 347.068 346.142 345.51 346.364 343.467C346.585 341.424 345.06 339.675 343.16 339.559L308.963 337.479L313.889 291.28C314.105 289.25 312.931 287.534 311.066 287.448C309.203 287.363 307.684 288.934 307.469 290.959L302.178 340.715C301.964 342.731 303.292 344.46 305.146 344.577Z" fill="url(#paint13_linear_27_866)"/>
<path d="M459.207 391.06C458.954 393.136 457.16 394.684 455.201 394.607L319.423 389.251C317.631 389.18 316.37 387.585 316.617 385.603L319.286 364.216C319.532 362.236 321.168 360.895 322.962 360.949L458.858 365.029C460.82 365.088 462.21 366.585 461.958 368.659L459.207 391.06Z" fill="#F4F7FA"/>
<path d="M453.948 434.515C453.695 436.594 451.9 438.369 449.941 438.264L314.266 431.019C312.476 430.924 311.229 429.071 311.476 427.086L314.167 405.287C314.413 403.304 316.064 401.604 317.856 401.682L453.613 407.601C455.573 407.686 456.958 409.602 456.705 411.679L453.948 434.515Z" fill="#F4F7FA"/>
<path d="M461.968 368.572C461.647 368.46 461.3 368.398 460.932 368.387L325.033 364.311C323.24 364.255 321.603 365.599 321.36 367.575L318.686 388.962C318.681 389.018 318.676 389.068 318.671 389.124C317.293 388.704 316.407 387.293 316.614 385.602L319.287 364.215C319.531 362.238 321.168 360.894 322.961 360.951L458.86 365.027C460.787 365.089 462.171 366.539 461.968 368.572Z" fill="#AABBCC"/>
<path d="M456.736 411.199C456.409 411.059 456.057 410.975 455.684 410.959L319.93 405.039C318.137 404.961 316.484 406.663 316.241 408.646L313.547 430.447C313.531 430.587 313.521 430.721 313.521 430.861C312.142 430.379 311.267 428.778 311.474 427.087L314.168 405.286C314.412 403.303 316.065 401.601 317.857 401.679L453.611 407.598C455.425 407.682 456.741 409.318 456.736 411.199Z" fill="#AABBCC"/>
<path d="M417.866 469.735C418.267 466.454 416.121 463.431 413.071 463.242L342.837 458.883C339.928 458.702 337.241 461.35 336.846 464.544L333.947 488.157C333.552 491.356 335.57 494.417 338.476 494.632L408.674 499.823C411.723 500.049 414.531 497.266 414.932 493.982L417.866 469.735Z" fill="url(#paint14_linear_27_866)"/>
<path d="M123.744 293.297L208.156 326.657L186.766 358.789L127.995 312.734L123.744 293.297Z" fill="white"/>
<path d="M185.665 357.644L192.095 331.732C192.352 330.697 193.078 329.875 194.023 329.551L205.258 325.695C205.27 325.69 205.273 325.689 205.301 325.68L205.388 325.65C205.421 325.639 205.454 325.639 205.486 325.632C205.509 325.627 205.535 325.623 205.56 325.618C205.585 325.616 205.608 325.608 205.632 325.607C206.208 325.51 207.292 325.514 208.157 326.657C207.514 327.159 206.934 327.133 206.461 326.913L198.426 354.867L186.767 358.789C186.463 358.891 186.132 358.806 185.903 358.568C185.674 358.33 185.583 357.976 185.665 357.644Z" fill="url(#paint15_linear_27_866)"/>
<path d="M187.583 357.637L193.914 332.547C194.172 331.525 194.889 330.712 195.82 330.385L207.335 326.34C207.59 326.25 207.87 326.322 208.061 326.526C208.251 326.729 208.321 327.031 208.242 327.308L200.64 353.804C200.45 354.47 199.968 354.991 199.352 355.198L188.684 358.786C188.38 358.888 188.048 358.803 187.818 358.564C187.59 358.325 187.499 357.97 187.583 357.637Z" fill="url(#paint16_linear_27_866)"/>
<path d="M219.051 348.097C223.815 352.632 215.099 386.618 190.356 396.749C170.849 404.736 147.567 395.879 136.398 378.345C129.959 368.236 124.127 350.186 131.278 341.407C131.603 341.008 135.644 336.2 141.406 336.542C154.746 337.334 155.607 364.443 169.913 367.76C173.275 368.54 174.483 367.334 202.57 354.096C216.119 347.71 217.912 347.013 219.051 348.097Z" fill="url(#paint17_linear_27_866)"/>
<path d="M182.628 361.62C182.628 361.62 181.434 356.588 184.299 354.265C187.164 351.943 188.358 345.878 188.836 348.072C189.313 350.265 188.836 352.846 188.836 352.846C188.836 352.846 199.102 343.168 198.983 346.523C198.864 349.878 191.462 361.104 186.687 363.298C181.912 365.491 182.702 365.827 182.628 361.62Z" fill="url(#paint18_linear_27_866)"/>
<path d="M217.766 348.459C217.766 348.459 217.925 341.319 221.347 339.684C224.77 338.05 228.669 329.792 228.431 334.007C228.192 338.222 224.69 340.2 224.69 340.2C224.69 340.2 230.341 342.4 227.874 345.816C225.406 349.233 222.621 349.921 219.756 351.469C219.756 351.469 218.98 354.071 217.01 353.684C215.04 353.297 216.731 349.62 217.766 348.459Z" fill="url(#paint19_linear_27_866)"/>
<path d="M97.7169 437.112C78.6666 446.976 60.5782 444.035 47.9231 441.977C33.6226 439.651 19.8498 437.412 14.4459 425.861C9.09753 414.429 13.8768 398.002 22.3229 389.068C32.2461 378.572 42.1461 383.798 49.0483 373.561C56.1198 363.073 47.7699 354.56 54.1121 342.849C62.0944 328.111 79.2399 334.362 87.5893 319.436C94.4395 307.19 86.0448 297.186 92.9344 289.333C102.489 278.441 130.36 284.266 134.824 297.096C136.568 302.11 133.923 305.853 131.97 312.899C125.756 335.316 138.467 348.039 139.634 368.391C141.21 395.886 121.202 424.951 97.7169 437.112Z" fill="url(#paint20_linear_27_866)"/>
<path d="M84.8011 671.055C84.8011 671.055 103.868 673.666 104.597 678.35C105.443 683.787 83.3945 679.011 83.3945 679.011C83.3945 679.011 80.0188 677.813 84.8011 671.055Z" fill="url(#paint21_linear_27_866)"/>
<path d="M86.0161 659.913L85.5513 671.418C85.5513 671.418 87.8818 674.611 90.552 672.301L92.6803 659.913H86.0161Z" fill="url(#paint22_linear_27_866)"/>
<path d="M115.865 676.627C115.865 676.627 134.932 679.238 135.661 683.921C136.507 689.359 114.458 684.582 114.458 684.582C114.458 684.582 111.083 683.385 115.865 676.627Z" fill="url(#paint23_linear_27_866)"/>
<path d="M117.08 665.484L116.615 676.989C116.615 676.989 118.945 680.183 121.615 677.873L123.744 665.484H117.08Z" fill="url(#paint24_linear_27_866)"/>
<path d="M142.796 475.841C141.793 492.483 139.326 516.44 132.669 544.665C130.274 554.818 127.866 563.281 122.446 580.87C115.973 601.872 106.846 630.561 94.9508 665.212C91.501 665.782 88.0514 666.352 84.6015 666.923C77.4604 638.79 79.5126 616.668 86.8449 599.081C91.1878 588.664 93.743 588.568 98.2132 576.938C102.964 564.579 104.904 552.128 103.704 510.09C103.363 498.186 102.728 482.364 101.444 463.644C115.228 467.71 129.012 471.775 142.796 475.841Z" fill="url(#paint25_linear_27_866)"/>
<path opacity="0.3" d="M142.796 475.841C141.793 492.483 139.326 516.44 132.669 544.665C130.274 554.818 127.866 563.282 122.446 580.87C115.973 601.873 106.846 630.561 94.9508 665.212C91.501 665.782 88.0514 666.353 84.6015 666.923C78.5015 640.663 82.9688 626.875 88.5176 619.088C91.9461 614.276 96.252 611.103 99.3956 602.824C103.095 593.083 100.475 588.673 102.396 577.268C104.986 561.894 111.134 561.665 113.305 549.642C115.866 535.463 108.604 528.637 103.703 510.09C100.977 499.769 98.5797 484.302 101.444 463.644C115.228 467.71 129.012 471.776 142.796 475.841Z" fill="url(#paint26_linear_27_866)"/>
<path d="M118.9 473.205C127.576 485.016 151.952 521.364 152.659 574.268C153.318 623.612 133.003 658.758 124.859 671.397C121.466 671.063 118.074 670.728 114.681 670.394C113.825 659.947 113.389 644.258 116.369 625.671C120.807 597.983 127.834 594.994 126.777 579.205C125.452 559.401 113.869 556.223 95.8321 520.251C86.1126 500.867 74.5026 477.712 82.0473 469.139C83.477 467.514 90.4793 460.863 118.9 473.205Z" fill="url(#paint27_linear_27_866)"/>
<path d="M127.724 328.289C139.944 330.693 147.266 339.75 149.284 342.32C151.792 345.515 159.211 355.936 159.352 382.598C159.488 408.159 152.737 411.116 150.69 435.366C147.672 471.132 160.399 487.919 151.525 495.982C143.972 502.845 134.786 490.652 109.334 491.973C88.3271 493.063 84.282 501.902 66.2233 499.692C63.4634 499.354 39.3524 496.133 35.6301 482.497C33.0442 473.024 42.5599 466.811 55.6039 443.88C68.0912 421.928 74.2329 401.496 77.284 391.345C86.4876 360.726 82.6684 352.355 93.0708 341.16C94.3678 339.763 108.92 324.591 127.724 328.289Z" fill="url(#paint28_linear_27_866)"/>
<path d="M115.378 303.997C115.378 303.997 117.867 322.683 108.38 332.714C107.707 333.427 108.021 334.654 108.943 334.864C113.35 335.865 123.599 337.478 133.538 333.869C134.403 333.555 134.598 332.318 133.887 331.701C131.809 329.898 128.31 326.452 126.446 322.313C123.683 316.178 123.191 305.712 123.191 305.712L115.378 303.997Z" fill="url(#paint29_linear_27_866)"/>
<g opacity="0.3">
<path d="M55.6031 443.88C68.0904 421.928 74.2321 401.496 77.2832 391.345C86.4868 360.726 82.6676 352.354 93.07 341.159C93.7363 340.442 97.9074 336.091 104.35 332.529C102.643 338.539 101.621 345.611 102.583 353.266C105.866 379.367 129.178 388.442 126.214 404.655C123.506 419.475 102.752 418.859 99.7702 434.758C96.7008 451.122 116.792 461.867 112.711 473.375C108.772 484.482 88.5745 478.646 68.5435 491.923C65.4934 493.945 62.739 496.218 60.2473 498.66C52.05 496.893 38.3593 492.498 35.6291 482.497C33.0433 473.024 42.5591 466.81 55.6031 443.88Z" fill="url(#paint30_linear_27_866)"/>
</g>
<path d="M115.087 310.673C115.087 310.673 119.372 317.029 126.091 314.38C132.108 312.008 128.517 295.213 123.744 293.296C122.153 292.657 119.23 292.94 117.276 294.258C115.901 295.184 112.232 300.112 114.335 305.634C112.815 305.158 111.477 305.59 111.143 306.404C110.717 307.436 112.005 308.841 112.296 309.16C113.306 310.263 114.525 310.571 115.087 310.673Z" fill="url(#paint31_linear_27_866)"/>
<path d="M189.693 361.962C187.429 361.04 185.165 360.118 182.901 359.196C181.568 361.816 172.677 378.679 156.035 381.241C140.342 383.657 125.606 372.149 118.76 360.868C112.267 350.17 113.586 340.853 107.507 338.823C101.391 336.78 93.809 344.126 90.2058 349.161C81.6835 361.072 81.983 378.838 87.2518 391.579C95.8179 412.294 118.831 422.897 138.449 420.739C168.841 417.396 182.923 384.319 185.296 378.349C187.867 371.882 189.074 366.088 189.693 361.962Z" fill="url(#paint32_linear_27_866)"/>
<path d="M80.9185 282.494C80.0398 282.51 79.2632 281.752 79.2632 280.801V257.381C79.2632 256.43 79.976 255.659 80.8547 255.659H98.1329C98.9897 255.659 99.6832 256.419 99.6832 257.357C99.6832 258.295 99.0539 259.057 98.1971 259.059L82.5707 259.096V280.747C82.5702 281.695 81.796 282.478 80.9185 282.494Z" fill="url(#paint33_linear_27_866)"/>
<path d="M98.1324 351.179L80.8542 352.332C79.9755 352.391 79.2627 351.667 79.2627 350.716V327.297C79.2627 326.346 80.0395 325.541 80.918 325.498C81.7955 325.456 82.57 326.191 82.57 327.14V348.791L98.1964 347.78C99.0532 347.725 99.7145 348.44 99.7145 349.378C99.7145 350.316 98.989 351.122 98.1324 351.179Z" fill="url(#paint34_linear_27_866)"/>
<path d="M159.693 281.035C158.907 281.049 158.338 280.332 158.338 279.433V258.916L143.875 258.95C143.072 258.952 142.385 258.216 142.385 257.306C142.385 256.397 143.003 255.659 143.807 255.659H159.624C160.409 255.659 161.044 256.387 161.044 257.284V279.383C161.044 280.281 160.477 281.02 159.693 281.035Z" fill="url(#paint35_linear_27_866)"/>
<path d="M159.624 347.074L143.807 348.13C143.003 348.184 142.351 347.49 142.351 346.58C142.351 345.671 143.071 344.892 143.875 344.84L158.338 343.915V323.398C158.338 322.499 158.907 321.738 159.693 321.7C160.477 321.662 161.044 322.359 161.044 323.256V345.355C161.044 346.252 160.409 347.022 159.624 347.074Z" fill="url(#paint36_linear_27_866)"/>
<path d="M399.49 333.319C354.583 333.319 321.567 292.69 325.81 243.669C329.968 195.636 368.498 157.268 411.777 157.268C455.056 157.268 488.23 195.636 485.683 243.669C483.084 292.69 444.396 333.319 399.49 333.319Z" fill="#AABBCC"/>
<path d="M482.548 243.669C480.017 290.824 442.921 329.74 399.739 329.74C356.557 329.74 324.894 290.824 328.945 243.669C332.917 197.429 369.867 160.597 411.545 160.597C453.222 160.597 485.031 197.429 482.548 243.669Z" fill="#EAEDF3"/>
<mask id="mask0_27_866" style="mask-type:luminance" maskUnits="userSpaceOnUse" x="328" y="160" width="155" height="170">
<path d="M482.548 243.669C480.017 290.824 442.921 329.74 399.739 329.74C356.557 329.74 324.894 290.824 328.945 243.669C332.917 197.429 369.867 160.597 411.545 160.597C453.222 160.597 485.031 197.429 482.548 243.669Z" fill="white"/>
</mask>
<g mask="url(#mask0_27_866)">
<path d="M401.612 183.526C386.987 183.068 372.433 191.299 365.335 202.793C356.735 216.721 366.202 223.708 359.487 246.581C353.245 267.846 342.307 271.499 342.908 285.585C343.571 301.107 357.419 311.004 362.906 314.925C387.683 332.633 428.555 331.891 450.624 309.064C452.457 307.168 467.548 291.56 464.538 277.29C461.86 264.593 447.274 264.504 445.057 251.379C443.158 240.129 453.296 236.507 453.325 220.32C453.331 217.167 453.358 202.293 442.833 195.45C435.839 190.903 427.753 192.204 424.778 192.84C421.447 189.993 413.295 183.892 401.612 183.526Z" fill="url(#paint37_linear_27_866)"/>
<path d="M316.895 301.417C316.895 301.417 396.141 255.956 486.544 301.269C486.544 301.269 472.473 340.782 400.449 343.503C325.897 346.319 316.895 301.417 316.895 301.417Z" fill="url(#paint38_linear_27_866)"/>
<path d="M394.189 242.4L389.816 263.874C388.315 271.246 382.911 277.427 375.84 279.825L352.143 287.86C352.143 287.86 394.751 309.918 452.014 287.871L427.229 278.74C420.22 275.947 415.791 268.939 416.013 261.001L416.526 242.683L394.189 242.4Z" fill="url(#paint39_linear_27_866)"/>
<path d="M429.445 224.044C428.276 242.009 416.357 261.373 403.143 261.263C389.848 261.152 380.488 241.394 381.853 223.233C383.207 205.209 394.62 195.659 407.719 195.966C420.74 196.272 430.606 206.214 429.445 224.044Z" fill="url(#paint40_linear_27_866)"/>
<path d="M417.357 207.682C410.242 207.909 399.375 209.431 391.344 217.265C377.795 230.481 382.167 251.969 376.452 253.186C371.358 254.271 364.8 238.895 366.232 222.228C367.424 208.359 373.336 192.213 385.709 188.437C392.964 186.223 394.765 190.151 417.437 192.974C430.651 194.619 425.03 200.567 427.878 202.895C440.551 213.258 436.747 246.697 429.486 247.042C426.042 247.206 421.885 238.354 417.357 207.682Z" fill="url(#paint41_linear_27_866)"/>
</g>
<defs>
<linearGradient id="paint0_linear_27_866" x1="453.295" y1="337.721" x2="558.14" y2="348.302" gradientUnits="userSpaceOnUse">
<stop stop-color="#444B8C"/>
<stop offset="0.9964" stop-color="#26264F"/>
</linearGradient>
<linearGradient id="paint1_linear_27_866" x1="361.074" y1="52.5504" x2="659.451" y2="992.345" gradientUnits="userSpaceOnUse">
<stop stop-color="#444B8C"/>
<stop offset="0.9964" stop-color="#26264F"/>
</linearGradient>
<linearGradient id="paint2_linear_27_866" x1="262.062" y1="363.152" x2="611.2" y2="363.152" gradientUnits="userSpaceOnUse">
<stop stop-color="#AA80F9"/>
<stop offset="0.9964" stop-color="#6165D7"/>
</linearGradient>
<linearGradient id="paint3_linear_27_866" x1="458.057" y1="29.093" x2="806.385" y2="901.896" gradientUnits="userSpaceOnUse">
<stop stop-color="#FFC444"/>
<stop offset="0.9964" stop-color="#F36F56"/>
</linearGradient>
<linearGradient id="paint4_linear_27_866" x1="237.659" y1="346.41" x2="573.813" y2="346.41" gradientUnits="userSpaceOnUse">
<stop stop-color="#311944"/>
<stop offset="1" stop-color="#893976"/>
</linearGradient>
<linearGradient id="paint5_linear_27_866" x1="529.302" y1="582.243" x2="428.842" y2="582.243" gradientUnits="userSpaceOnUse">
<stop stop-color="#FF9085"/>
<stop offset="1" stop-color="#FB6FBB"/>
</linearGradient>
<linearGradient id="paint6_linear_27_866" x1="618.006" y1="554.982" x2="457.861" y2="554.982" gradientUnits="userSpaceOnUse">
<stop stop-color="#FFC444"/>
<stop offset="0.9964" stop-color="#F36F56"/>
</linearGradient>
<linearGradient id="paint7_linear_27_866" x1="640.502" y1="645.69" x2="479.853" y2="645.69" gradientUnits="userSpaceOnUse">
<stop offset="0.0036" stop-color="#E38DDD"/>
<stop offset="1" stop-color="#9571F6"/>
</linearGradient>
<linearGradient id="paint8_linear_27_866" x1="52.9881" y1="126.988" x2="205.203" y2="126.988" gradientUnits="userSpaceOnUse">
<stop stop-color="#444B8C"/>
<stop offset="0.9964" stop-color="#26264F"/>
</linearGradient>
<linearGradient id="paint9_linear_27_866" x1="61.9954" y1="129.902" x2="214.211" y2="129.902" gradientUnits="userSpaceOnUse">
<stop stop-color="#AA80F9"/>
<stop offset="0.9964" stop-color="#6165D7"/>
</linearGradient>
<linearGradient id="paint10_linear_27_866" x1="484.208" y1="179.632" x2="517.795" y2="137.49" gradientUnits="userSpaceOnUse">
<stop stop-color="#AA80F9"/>
<stop offset="0.9964" stop-color="#6165D7"/>
</linearGradient>
<linearGradient id="paint11_linear_27_866" x1="469.299" y1="317.614" x2="497.316" y2="352.768" gradientUnits="userSpaceOnUse">
<stop stop-color="#AA80F9"/>
<stop offset="0.9964" stop-color="#6165D7"/>
</linearGradient>
<linearGradient id="paint12_linear_27_866" x1="348.489" y1="174.2" x2="321.799" y2="140.712" gradientUnits="userSpaceOnUse">
<stop stop-color="#AA80F9"/>
<stop offset="0.9964" stop-color="#6165D7"/>
</linearGradient>
<linearGradient id="paint13_linear_27_866" x1="334.779" y1="305.645" x2="303.949" y2="344.327" gradientUnits="userSpaceOnUse">
<stop stop-color="#AA80F9"/>
<stop offset="0.9964" stop-color="#6165D7"/>
</linearGradient>
<linearGradient id="paint14_linear_27_866" x1="308.415" y1="377.732" x2="530.483" y2="662.868" gradientUnits="userSpaceOnUse">
<stop stop-color="#AA80F9"/>
<stop offset="0.9964" stop-color="#6165D7"/>
</linearGradient>
<linearGradient id="paint15_linear_27_866" x1="188.514" y1="317.896" x2="192.16" y2="327.002" gradientUnits="userSpaceOnUse">
<stop stop-color="#444B8C"/>
<stop offset="0.9964" stop-color="#26264F"/>
</linearGradient>
<linearGradient id="paint16_linear_27_866" x1="208.275" y1="342.565" x2="187.552" y2="342.565" gradientUnits="userSpaceOnUse">
<stop stop-color="#444B8C"/>
<stop offset="0.9964" stop-color="#26264F"/>
</linearGradient>
<linearGradient id="paint17_linear_27_866" x1="220.3" y1="368.117" x2="127.995" y2="368.117" gradientUnits="userSpaceOnUse">
<stop stop-color="#FFC444"/>
<stop offset="0.9964" stop-color="#F36F56"/>
</linearGradient>
<linearGradient id="paint18_linear_27_866" x1="198.984" y1="355.351" x2="182.381" y2="355.351" gradientUnits="userSpaceOnUse">
<stop stop-color="#311944"/>
<stop offset="1" stop-color="#A03976"/>
</linearGradient>
<linearGradient id="paint19_linear_27_866" x1="228.497" y1="343.273" x2="216.101" y2="343.273" gradientUnits="userSpaceOnUse">
<stop stop-color="#311944"/>
<stop offset="1" stop-color="#A03976"/>
</linearGradient>
<linearGradient id="paint20_linear_27_866" x1="114.113" y1="348.167" x2="36.9167" y2="405.248" gradientUnits="userSpaceOnUse">
<stop stop-color="#311944"/>
<stop offset="1" stop-color="#893976"/>
</linearGradient>
<linearGradient id="paint21_linear_27_866" x1="114.041" y1="650.422" x2="78.0076" y2="689.821" gradientUnits="userSpaceOnUse">
<stop stop-color="#444B8C"/>
<stop offset="0.9964" stop-color="#3E4177"/>
</linearGradient>
<linearGradient id="paint22_linear_27_866" x1="89.6647" y1="655.057" x2="87.4755" y2="683.819" gradientUnits="userSpaceOnUse">
<stop stop-color="#311944"/>
<stop offset="1" stop-color="#893976"/>
</linearGradient>
<linearGradient id="paint23_linear_27_866" x1="134.685" y1="669.304" x2="98.6523" y2="708.702" gradientUnits="userSpaceOnUse">
<stop stop-color="#444B8C"/>
<stop offset="0.9964" stop-color="#3E4177"/>
</linearGradient>
<linearGradient id="paint24_linear_27_866" x1="120.936" y1="657.438" x2="118.747" y2="686.2" gradientUnits="userSpaceOnUse">
<stop stop-color="#311944"/>
<stop offset="1" stop-color="#893976"/>
</linearGradient>
<linearGradient id="paint25_linear_27_866" x1="142.796" y1="565.284" x2="80.1779" y2="565.284" gradientUnits="userSpaceOnUse">
<stop stop-color="#444B8C"/>
<stop offset="0.9964" stop-color="#3E4177"/>
</linearGradient>
<linearGradient id="paint26_linear_27_866" x1="142.796" y1="565.284" x2="81.6714" y2="565.284" gradientUnits="userSpaceOnUse">
<stop stop-color="#444B8C"/>
<stop offset="0.9964" stop-color="#3E4177"/>
</linearGradient>
<linearGradient id="paint27_linear_27_866" x1="152.675" y1="568.644" x2="79.6241" y2="568.644" gradientUnits="userSpaceOnUse">
<stop stop-color="#444B8C"/>
<stop offset="0.9964" stop-color="#3E4177"/>
</linearGradient>
<linearGradient id="paint28_linear_27_866" x1="159.354" y1="413.877" x2="35.2044" y2="413.877" gradientUnits="userSpaceOnUse">
<stop stop-color="#FFC444"/>
<stop offset="0.9964" stop-color="#F36F56"/>
</linearGradient>
<linearGradient id="paint29_linear_27_866" x1="141.943" y1="335.416" x2="109.086" y2="319.006" gradientUnits="userSpaceOnUse">
<stop stop-color="#311944"/>
<stop offset="1" stop-color="#A03976"/>
</linearGradient>
<linearGradient id="paint30_linear_27_866" x1="159.354" y1="415.594" x2="35.204" y2="415.594" gradientUnits="userSpaceOnUse">
<stop stop-color="#FFC444"/>
<stop offset="0.9964" stop-color="#F36F56"/>
</linearGradient>
<linearGradient id="paint31_linear_27_866" x1="97.0486" y1="286.981" x2="121.994" y2="301.643" gradientUnits="userSpaceOnUse">
<stop stop-color="#311944"/>
<stop offset="1" stop-color="#A03976"/>
</linearGradient>
<linearGradient id="paint32_linear_27_866" x1="189.692" y1="379.744" x2="83.5086" y2="379.744" gradientUnits="userSpaceOnUse">
<stop stop-color="#FFC444"/>
<stop offset="0.9964" stop-color="#F36F56"/>
</linearGradient>
<linearGradient id="paint33_linear_27_866" x1="92.5801" y1="273.616" x2="79.0697" y2="256.665" gradientUnits="userSpaceOnUse">
<stop stop-color="#AA80F9"/>
<stop offset="0.9964" stop-color="#6165D7"/>
</linearGradient>
<linearGradient id="paint34_linear_27_866" x1="92.3612" y1="334.136" x2="78.7879" y2="351.167" gradientUnits="userSpaceOnUse">
<stop stop-color="#AA80F9"/>
<stop offset="0.9964" stop-color="#6165D7"/>
</linearGradient>
<linearGradient id="paint35_linear_27_866" x1="148.766" y1="272.68" x2="161.453" y2="256.761" gradientUnits="userSpaceOnUse">
<stop stop-color="#AA80F9"/>
<stop offset="0.9964" stop-color="#6165D7"/>
</linearGradient>
<linearGradient id="paint36_linear_27_866" x1="148.548" y1="330.281" x2="161.184" y2="346.134" gradientUnits="userSpaceOnUse">
<stop stop-color="#AA80F9"/>
<stop offset="0.9964" stop-color="#6165D7"/>
</linearGradient>
<linearGradient id="paint37_linear_27_866" x1="397.574" y1="167.645" x2="389.075" y2="35.2793" gradientUnits="userSpaceOnUse">
<stop stop-color="#311944"/>
<stop offset="1" stop-color="#893976"/>
</linearGradient>
<linearGradient id="paint38_linear_27_866" x1="336.383" y1="-104.727" x2="476.455" y2="640.428" gradientUnits="userSpaceOnUse">
<stop stop-color="#FFC444"/>
<stop offset="0.9964" stop-color="#F36F56"/>
</linearGradient>
<linearGradient id="paint39_linear_27_866" x1="403.312" y1="308.283" x2="396.235" y2="208.052" gradientUnits="userSpaceOnUse">
<stop stop-color="#893976"/>
<stop offset="1" stop-color="#311944"/>
</linearGradient>
<linearGradient id="paint40_linear_27_866" x1="418.508" y1="217.211" x2="310.199" y2="288.519" gradientUnits="userSpaceOnUse">
<stop stop-color="#893976"/>
<stop offset="1" stop-color="#311944"/>
</linearGradient>
<linearGradient id="paint41_linear_27_866" x1="397.84" y1="167.628" x2="389.341" y2="35.2623" gradientUnits="userSpaceOnUse">
<stop stop-color="#311944"/>
<stop offset="1" stop-color="#893976"/>
</linearGradient>
</defs>
</svg>
